<svg width="382" height="262" viewBox="0 0 382 262" fill="none" xmlns="http://www.w3.org/2000/svg">
<path d="M2.42946 205.526L0.151367 207.806L8.88792 216.523L11.166 214.243L2.42946 205.526Z" fill="#C72128"/>
<path d="M0.128877 214.25L2.41016 216.526L11.1345 207.797L8.85324 205.521L0.128877 214.25Z" fill="#C72128"/>
<path d="M25.3748 205.508L23.0967 207.787L31.8332 216.504L34.1113 214.225L25.3748 205.508Z" fill="#C72128"/>
<path d="M23.0849 214.243L25.3662 216.52L34.0906 207.79L31.8093 205.514L23.0849 214.243Z" fill="#C72128"/>
<path d="M48.3035 205.507L46.0254 207.786L54.7619 216.503L57.04 214.224L48.3035 205.507Z" fill="#C72128"/>
<path d="M46.0244 214.22L48.3057 216.496L57.03 207.767L54.7487 205.491L46.0244 214.22Z" fill="#C72128"/>
<path d="M71.2498 205.488L68.9717 207.768L77.7082 216.485L79.9863 214.205L71.2498 205.488Z" fill="#C72128"/>
<path d="M68.9629 214.213L71.2441 216.489L79.9685 207.76L77.6872 205.484L68.9629 214.213Z" fill="#C72128"/>
<path d="M94.1912 205.457L91.9131 207.736L100.65 216.453L102.928 214.174L94.1912 205.457Z" fill="#C72128"/>
<path d="M91.9072 214.194L94.1885 216.47L102.913 207.741L100.632 205.464L91.9072 214.194Z" fill="#C72128"/>
<path d="M2.42946 228.601L0.151367 230.88L8.88792 239.597L11.166 237.318L2.42946 228.601Z" fill="#C72128"/>
<path d="M0.160127 237.311L2.44141 239.587L11.1658 230.858L8.88449 228.582L0.160127 237.311Z" fill="#C72128"/>
<path d="M25.3875 228.569L23.1094 230.849L31.8459 239.566L34.124 237.286L25.3875 228.569Z" fill="#C72128"/>
<path d="M23.1035 237.292L25.3848 239.568L34.1091 230.839L31.8278 228.563L23.1035 237.292Z" fill="#C72128"/>
<path d="M48.3347 228.551L46.0566 230.83L54.7932 239.547L57.0713 237.268L48.3347 228.551Z" fill="#C72128"/>
<path d="M46.042 237.286L48.3232 239.562L57.0476 230.833L54.7663 228.557L46.042 237.286Z" fill="#C72128"/>
<path d="M71.2615 228.55L68.9834 230.829L77.7199 239.546L79.998 237.267L71.2615 228.55Z" fill="#C72128"/>
<path d="M68.9804 237.262L71.2617 239.538L79.9861 230.809L77.7048 228.533L68.9804 237.262Z" fill="#C72128"/>
<path d="M94.2205 228.519L91.9424 230.798L100.679 239.515L102.957 237.235L94.2205 228.519Z" fill="#C72128"/>
<path d="M91.9248 237.243L94.2061 239.52L102.93 230.79L100.649 228.514L91.9248 237.243Z" fill="#C72128"/>
<path d="M2.4529 250.047L0.174805 252.326L8.91133 261.043L11.1894 258.764L2.4529 250.047Z" fill="#C72128"/>
<path d="M0.171846 258.757L2.45312 261.033L11.1775 252.304L8.89619 250.028L0.171846 258.757Z" fill="#C72128"/>
<path d="M25.3982 250.028L23.1201 252.308L31.8567 261.025L34.1348 258.745L25.3982 250.028Z" fill="#C72128"/>
<path d="M23.1103 258.751L25.3916 261.027L34.116 252.298L31.8347 250.022L23.1103 258.751Z" fill="#C72128"/>
<path d="M48.3406 249.997L46.0625 252.276L54.799 260.993L57.0771 258.714L48.3406 249.997Z" fill="#C72128"/>
<path d="M46.0547 258.732L48.3359 261.008L57.0603 252.279L54.779 250.003L46.0547 258.732Z" fill="#C72128"/>
<path d="M71.2859 249.996L69.0078 252.275L77.7444 260.992L80.0225 258.713L71.2859 249.996Z" fill="#C72128"/>
<path d="M68.9931 258.708L71.2744 260.984L79.9988 252.255L77.7175 249.979L68.9931 258.708Z" fill="#C72128"/>
<path d="M94.2322 249.96L91.9541 252.239L100.691 260.956L102.969 258.677L94.2322 249.96Z" fill="#C72128"/>
<path d="M91.9502 258.719L94.2314 260.995L102.956 252.266L100.675 249.99L91.9502 258.719Z" fill="#C72128"/>
<path d="M2.36696 137.219L0.0888672 139.498L8.82542 148.215L11.1035 145.936L2.36696 137.219Z" fill="#C72128"/>
<path d="M0.0849317 145.94L2.36621 148.216L11.0906 139.487L8.80929 137.211L0.0849317 145.94Z" fill="#C72128"/>
<path d="M25.3133 137.2L23.0352 139.479L31.7717 148.196L34.0498 145.917L25.3133 137.2Z" fill="#C72128"/>
<path d="M23.0244 145.933L25.3057 148.209L34.03 139.48L31.7487 137.204L23.0244 145.933Z" fill="#C72128"/>
<path d="M48.2713 137.169L45.9932 139.448L54.7297 148.165L57.0078 145.886L48.2713 137.169Z" fill="#C72128"/>
<path d="M45.9677 145.914L48.249 148.19L56.9734 139.461L54.6921 137.185L45.9677 145.914Z" fill="#C72128"/>
<path d="M71.2 137.168L68.9219 139.447L77.6584 148.164L79.9365 145.885L71.2 137.168Z" fill="#C72128"/>
<path d="M68.9248 145.907L71.2061 148.184L79.9304 139.454L77.6491 137.178L68.9248 145.907Z" fill="#C72128"/>
<path d="M94.159 137.162L91.8809 139.441L100.617 148.158L102.896 145.879L94.159 137.162Z" fill="#C72128"/>
<path d="M91.8584 145.872L94.1396 148.148L102.864 139.419L100.583 137.143L91.8584 145.872Z" fill="#C72128"/>
<path d="M2.39724 160.281L0.119141 162.561L8.85569 171.278L11.1338 168.998L2.39724 160.281Z" fill="#C72128"/>
<path d="M0.103487 168.989L2.38477 171.266L11.1091 162.536L8.82785 160.26L0.103487 168.989Z" fill="#C72128"/>
<path d="M25.3426 160.262L23.0645 162.541L31.801 171.258L34.0791 168.979L25.3426 160.262Z" fill="#C72128"/>
<path d="M23.041 168.983L25.3223 171.259L34.0466 162.53L31.7653 160.253L23.041 168.983Z" fill="#C72128"/>
<path d="M48.2713 160.244L45.9932 162.523L54.7297 171.24L57.0078 168.961L48.2713 160.244Z" fill="#C72128"/>
<path d="M45.998 168.977L48.2793 171.253L57.0037 162.524L54.7224 160.248L45.998 168.977Z" fill="#C72128"/>
<path d="M71.2293 160.213L68.9512 162.492L77.6877 171.209L79.9658 168.93L71.2293 160.213Z" fill="#C72128"/>
<path d="M68.9238 168.958L71.2051 171.234L79.9294 162.505L77.6482 160.229L68.9238 168.958Z" fill="#C72128"/>
<path d="M94.159 160.212L91.8809 162.491L100.617 171.208L102.896 168.929L94.159 160.212Z" fill="#C72128"/>
<path d="M91.8818 168.951L94.1631 171.228L102.887 162.498L100.606 160.222L91.8818 168.951Z" fill="#C72128"/>
<path d="M2.42067 181.709L0.142578 183.988L8.87913 192.705L11.1572 190.426L2.42067 181.709Z" fill="#C72128"/>
<path d="M0.115205 190.435L2.39648 192.711L11.1208 183.982L8.83956 181.706L0.115205 190.435Z" fill="#C72128"/>
<path d="M25.3484 181.709L23.0703 183.988L31.8069 192.705L34.085 190.426L25.3484 181.709Z" fill="#C72128"/>
<path d="M23.0713 190.429L25.3525 192.705L34.0769 183.976L31.7956 181.7L23.0713 190.429Z" fill="#C72128"/>
<path d="M48.2781 181.708L46 183.987L54.7365 192.704L57.0146 190.425L48.2781 181.708Z" fill="#C72128"/>
<path d="M45.9931 190.422L48.2744 192.698L56.9988 183.969L54.7175 181.693L45.9931 190.422Z" fill="#C72128"/>
<path d="M71.2234 181.671L68.9453 183.95L77.6819 192.667L79.96 190.388L71.2234 181.671Z" fill="#C72128"/>
<path d="M68.9502 190.415L71.2314 192.691L79.9558 183.962L77.6745 181.686L68.9502 190.415Z" fill="#C72128"/>
<path d="M94.1814 181.658L91.9033 183.938L100.64 192.654L102.918 190.375L94.1814 181.658Z" fill="#C72128"/>
<path d="M91.8935 190.398L94.1748 192.674L102.899 183.945L100.618 181.669L91.8935 190.398Z" fill="#C72128"/>
<path d="M2.32302 68.9101L0.0449219 71.1895L8.78147 79.9064L11.0596 77.6271L2.32302 68.9101Z" fill="#C72128"/>
<path d="M0.0419633 77.6291L2.32324 79.9053L11.0476 71.1761L8.76632 68.9L0.0419633 77.6291Z" fill="#C72128"/>
<path d="M25.2644 68.8798L22.9863 71.1592L31.7229 79.8761L34.001 77.5968L25.2644 68.8798Z" fill="#C72128"/>
<path d="M22.9873 77.6106L25.2686 79.8867L33.9929 71.1576L31.7116 68.8814L22.9873 77.6106Z" fill="#C72128"/>
<path d="M48.2244 68.874L45.9463 71.1533L54.6828 79.8703L56.9609 77.5909L48.2244 68.874Z" fill="#C72128"/>
<path d="M45.9384 77.592L48.2197 79.8682L56.9441 71.139L54.6628 68.8629L45.9384 77.592Z" fill="#C72128"/>
<path d="M71.1511 68.872L68.873 71.1514L77.6096 79.8683L79.8877 77.589L71.1511 68.872Z" fill="#C72128"/>
<path d="M68.8769 77.5852L71.1582 79.8613L79.8826 71.1322L77.6013 68.856L68.8769 77.5852Z" fill="#C72128"/>
<path d="M94.1092 68.8242L91.8311 71.1035L100.568 79.8205L102.846 77.5411L94.1092 68.8242Z" fill="#C72128"/>
<path d="M91.8203 77.5666L94.1016 79.8428L102.826 71.1136L100.545 68.8375L91.8203 77.5666Z" fill="#C72128"/>
<path d="M2.33474 91.9726L0.0566406 94.252L8.79319 102.969L11.0713 100.69L2.33474 91.9726Z" fill="#C72128"/>
<path d="M0.0595411 100.696L2.34082 102.973L11.0652 94.2435L8.7839 91.9673L0.0595411 100.696Z" fill="#C72128"/>
<path d="M25.2947 91.9414L23.0166 94.2207L31.7531 102.938L34.0312 100.658L25.2947 91.9414Z" fill="#C72128"/>
<path d="M22.9863 100.659L25.2676 102.936L33.9919 94.2064L31.7107 91.9302L22.9863 100.659Z" fill="#C72128"/>
<path d="M48.2224 91.9228L45.9443 94.2021L54.6809 102.919L56.959 100.64L48.2224 91.9228Z" fill="#C72128"/>
<path d="M45.9433 100.654L48.2246 102.93L56.949 94.2005L54.6677 91.9244L45.9433 100.654Z" fill="#C72128"/>
<path d="M71.1814 91.9169L68.9033 94.1963L77.6399 102.913L79.918 100.634L71.1814 91.9169Z" fill="#C72128"/>
<path d="M68.9121 100.635L71.1934 102.911L79.9177 94.182L77.6364 91.9058L68.9121 100.635Z" fill="#C72128"/>
<path d="M94.1092 91.9169L91.8311 94.1963L100.568 102.913L102.846 100.634L94.1092 91.9169Z" fill="#C72128"/>
<path d="M91.8506 100.629L94.1318 102.905L102.856 94.1761L100.575 91.9L91.8506 100.629Z" fill="#C72128"/>
<path d="M2.35817 113.419L0.0800781 115.698L8.81663 124.415L11.0947 122.136L2.35817 113.419Z" fill="#C72128"/>
<path d="M0.0722367 122.142L2.35352 124.418L11.0779 115.689L8.7966 113.413L0.0722367 122.142Z" fill="#C72128"/>
<path d="M25.2879 113.4L23.0098 115.68L31.7463 124.397L34.0244 122.117L25.2879 113.4Z" fill="#C72128"/>
<path d="M23.0117 122.118L25.293 124.395L34.0173 115.665L31.736 113.389L23.0117 122.118Z" fill="#C72128"/>
<path d="M48.2459 113.369L45.9678 115.648L54.7043 124.365L56.9824 122.086L48.2459 113.369Z" fill="#C72128"/>
<path d="M45.955 122.116L48.2363 124.393L56.9607 115.663L54.6794 113.387L45.955 122.116Z" fill="#C72128"/>
<path d="M71.2049 113.363L68.9268 115.643L77.6633 124.36L79.9414 122.08L71.2049 113.363Z" fill="#C72128"/>
<path d="M68.9248 122.08L71.2061 124.356L79.9304 115.627L77.6491 113.351L68.9248 122.08Z" fill="#C72128"/>
<path d="M94.1326 113.363L91.8545 115.643L100.591 124.36L102.869 122.08L94.1326 113.363Z" fill="#C72128"/>
<path d="M91.8633 122.074L94.1445 124.351L102.869 115.621L100.588 113.345L91.8633 122.074Z" fill="#C72128"/>
<path d="M2.28688 0.60249L0.00878906 2.88184L8.74534 11.5988L11.0234 9.31945L2.28688 0.60249Z" fill="#C72128"/>
<path d="M-2.88783e-05 9.31173L2.28125 11.5879L11.0056 2.85875L8.72433 0.582582L-2.88783e-05 9.31173Z" fill="#C72128"/>
<path d="M25.2332 0.584912L22.9551 2.86426L31.6916 11.5812L33.9697 9.30188L25.2332 0.584912Z" fill="#C72128"/>
<path d="M22.957 9.30587L25.2383 11.582L33.9626 2.85289L31.6814 0.576723L22.957 9.30587Z" fill="#C72128"/>
<path d="M48.1619 0.566358L45.8838 2.8457L54.6203 11.5627L56.8984 9.28332L48.1619 0.566358Z" fill="#C72128"/>
<path d="M45.8965 9.29903L48.1777 11.5752L56.9021 2.84605L54.6208 0.569886L45.8965 9.29903Z" fill="#C72128"/>
<path d="M71.1199 0.535108L68.8418 2.81445L77.5783 11.5314L79.8564 9.25207L71.1199 0.535108Z" fill="#C72128"/>
<path d="M68.8388 9.2629L71.1201 11.5391L79.8445 2.80992L77.5632 0.533753L68.8388 9.2629Z" fill="#C72128"/>
<path d="M94.0486 0.535103L91.7705 2.81445L100.507 11.5314L102.785 9.25207L94.0486 0.535103Z" fill="#C72128"/>
<path d="M91.7783 9.25703L94.0596 11.5332L102.784 2.80406L100.503 0.52789L91.7783 9.25703Z" fill="#C72128"/>
<path d="M2.28689 23.6347L0.00878906 25.9141L8.74534 34.631L11.0234 32.3517L2.28689 23.6347Z" fill="#C72128"/>
<path d="M0.0048536 32.3732L2.28613 34.6494L11.0105 25.9203L8.72921 23.6441L0.0048536 32.3732Z" fill="#C72128"/>
<path d="M25.2459 23.6464L22.9678 25.9258L31.7043 34.6427L33.9824 32.3634L25.2459 23.6464Z" fill="#C72128"/>
<path d="M22.9746 32.3547L25.2559 34.6309L33.9802 25.9017L31.6989 23.6256L22.9746 32.3547Z" fill="#C72128"/>
<path d="M48.1912 23.6279L45.9131 25.9072L54.6496 34.6242L56.9277 32.3448L48.1912 23.6279Z" fill="#C72128"/>
<path d="M45.9131 32.3488L48.1943 34.625L56.9187 25.8959L54.6374 23.6197L45.9131 32.3488Z" fill="#C72128"/>
<path d="M71.1316 23.5966L68.8535 25.876L77.5901 34.5929L79.8682 32.3136L71.1316 23.5966Z" fill="#C72128"/>
<path d="M68.8388 32.3293L71.1201 34.6055L79.8445 25.8763L77.5632 23.6002L68.8388 32.3293Z" fill="#C72128"/>
<path d="M94.0799 23.5781L91.8018 25.8574L100.538 34.5744L102.816 32.295L94.0799 23.5781Z" fill="#C72128"/>
<path d="M91.7968 32.3059L94.0781 34.582L102.802 25.8529L100.521 23.5767L91.7968 32.3059Z" fill="#C72128"/>
<path d="M2.3113 45.0986L0.0332031 47.3779L8.76975 56.0949L11.0478 53.8155L2.3113 45.0986Z" fill="#C72128"/>
<path d="M0.0175492 53.8195L2.29883 56.0957L11.0232 47.3666L8.74191 45.0904L0.0175492 53.8195Z" fill="#C72128"/>
<path d="M25.2693 45.0927L22.9912 47.3721L31.7278 56.089L34.0059 53.8097L25.2693 45.0927Z" fill="#C72128"/>
<path d="M22.9863 53.801L25.2676 56.0771L33.9919 47.348L31.7107 45.0718L22.9863 53.801Z" fill="#C72128"/>
<path d="M48.198 45.0742L45.9199 47.3535L54.6565 56.0705L56.9346 53.7911L48.198 45.0742Z" fill="#C72128"/>
<path d="M45.9267 53.7941L48.208 56.0703L56.9324 47.3412L54.6511 45.065L45.9267 53.7941Z" fill="#C72128"/>
<path d="M71.1443 45.0556L68.8662 47.335L77.6028 56.0519L79.8809 53.7726L71.1443 45.0556Z" fill="#C72128"/>
<path d="M68.8652 53.7883L71.1465 56.0645L79.8708 47.3353L77.5896 45.0591L68.8652 53.7883Z" fill="#C72128"/>
<path d="M94.0847 45.0244L91.8066 47.3037L100.543 56.0207L102.821 53.7413L94.0847 45.0244Z" fill="#C72128"/>
<path d="M91.8095 53.7688L94.0908 56.0449L102.815 47.3158L100.534 45.0396L91.8095 53.7688Z" fill="#C72128"/>
<path d="M118.465 205.456L116.187 207.735L124.923 216.452L127.201 214.173L118.465 205.456Z" fill="#C72128"/>
<path d="M116.173 214.171L118.454 216.447L127.178 207.718L124.897 205.442L116.173 214.171Z" fill="#C72128"/>
<path d="M141.424 205.432L139.146 207.711L147.882 216.428L150.16 214.149L141.424 205.432Z" fill="#C72128"/>
<path d="M139.143 214.152L141.424 216.428L150.148 207.699L147.867 205.422L139.143 214.152Z" fill="#C72128"/>
<path d="M164.351 205.413L162.073 207.692L170.81 216.409L173.088 214.13L164.351 205.413Z" fill="#C72128"/>
<path d="M162.099 214.146L164.38 216.422L173.104 207.693L170.823 205.417L162.099 214.146Z" fill="#C72128"/>
<path d="M187.309 205.417L185.031 207.696L193.768 216.413L196.046 214.134L187.309 205.417Z" fill="#C72128"/>
<path d="M185.007 214.126L187.288 216.402L196.012 207.673L193.731 205.397L185.007 214.126Z" fill="#C72128"/>
<path d="M210.239 205.381L207.961 207.66L216.697 216.377L218.976 214.098L210.239 205.381Z" fill="#C72128"/>
<path d="M207.965 214.12L210.246 216.396L218.97 207.667L216.689 205.391L207.965 214.12Z" fill="#C72128"/>
<path d="M118.496 228.481L116.218 230.761L124.954 239.478L127.232 237.198L118.496 228.481Z" fill="#C72128"/>
<path d="M116.191 237.237L118.473 239.513L127.197 230.784L124.916 228.507L116.191 237.237Z" fill="#C72128"/>
<path d="M141.423 228.48L139.145 230.76L147.881 239.477L150.159 237.197L141.423 228.48Z" fill="#C72128"/>
<path d="M139.129 237.231L141.41 239.507L150.135 230.778L147.853 228.502L139.129 237.231Z" fill="#C72128"/>
<path d="M164.382 228.492L162.104 230.771L170.84 239.488L173.118 237.209L164.382 228.492Z" fill="#C72128"/>
<path d="M162.099 237.212L164.38 239.488L173.104 230.759L170.823 228.483L162.099 237.212Z" fill="#C72128"/>
<path d="M187.323 228.462L185.045 230.741L193.781 239.458L196.06 237.179L187.323 228.462Z" fill="#C72128"/>
<path d="M185.025 237.176L187.307 239.452L196.031 230.723L193.75 228.447L185.025 237.176Z" fill="#C72128"/>
<path d="M210.27 228.46L207.992 230.739L216.729 239.456L219.007 237.177L210.27 228.46Z" fill="#C72128"/>
<path d="M207.965 237.169L210.246 239.445L218.97 230.716L216.689 228.44L207.965 237.169Z" fill="#C72128"/>
<path d="M118.501 249.946L116.223 252.226L124.959 260.943L127.237 258.663L118.501 249.946Z" fill="#C72128"/>
<path d="M116.222 258.684L118.503 260.96L127.227 252.231L124.946 249.955L116.222 258.684Z" fill="#C72128"/>
<path d="M141.447 249.945L139.169 252.225L147.905 260.942L150.184 258.662L141.447 249.945Z" fill="#C72128"/>
<path d="M139.143 258.678L141.424 260.954L150.148 252.225L147.867 249.949L139.143 258.678Z" fill="#C72128"/>
<path d="M164.387 249.939L162.109 252.219L170.846 260.936L173.124 258.656L164.387 249.939Z" fill="#C72128"/>
<path d="M162.111 258.658L164.393 260.935L173.117 252.205L170.836 249.929L162.111 258.658Z" fill="#C72128"/>
<path d="M187.334 249.92L185.056 252.199L193.792 260.916L196.07 258.637L187.334 249.92Z" fill="#C72128"/>
<path d="M185.05 258.652L187.331 260.928L196.055 252.199L193.774 249.922L185.05 258.652Z" fill="#C72128"/>
<path d="M210.275 249.907L207.997 252.187L216.734 260.903L219.012 258.624L210.275 249.907Z" fill="#C72128"/>
<path d="M207.977 258.615L210.258 260.892L218.982 252.162L216.701 249.886L207.977 258.615Z" fill="#C72128"/>
<path d="M118.416 137.143L116.138 139.422L124.874 148.139L127.152 145.859L118.416 137.143Z" fill="#C72128"/>
<path d="M116.144 145.865L118.425 148.142L127.149 139.412L124.868 137.136L116.144 145.865Z" fill="#C72128"/>
<path d="M141.375 137.111L139.097 139.391L147.833 148.108L150.111 145.828L141.375 137.111Z" fill="#C72128"/>
<path d="M139.087 145.847L141.368 148.123L150.093 139.394L147.811 137.118L139.087 145.847Z" fill="#C72128"/>
<path d="M164.32 137.11L162.042 139.39L170.779 148.107L173.057 145.827L164.32 137.11Z" fill="#C72128"/>
<path d="M162.025 145.84L164.307 148.116L173.031 139.387L170.75 137.111L162.025 145.84Z" fill="#C72128"/>
<path d="M187.249 137.074L184.971 139.354L193.707 148.07L195.985 145.791L187.249 137.074Z" fill="#C72128"/>
<path d="M184.982 145.817L187.264 148.093L195.988 139.364L193.707 137.087L184.982 145.817Z" fill="#C72128"/>
<path d="M210.195 137.073L207.917 139.353L216.654 148.07L218.932 145.79L210.195 137.073Z" fill="#C72128"/>
<path d="M207.922 145.81L210.203 148.086L218.927 139.357L216.646 137.081L207.922 145.81Z" fill="#C72128"/>
<path d="M118.446 160.205L116.168 162.484L124.905 171.201L127.183 168.922L118.446 160.205Z" fill="#C72128"/>
<path d="M116.16 168.915L118.441 171.191L127.166 162.462L124.884 160.186L116.16 168.915Z" fill="#C72128"/>
<path d="M141.387 160.173L139.109 162.452L147.846 171.169L150.124 168.89L141.387 160.173Z" fill="#C72128"/>
<path d="M139.104 168.896L141.386 171.172L150.11 162.443L147.829 160.167L139.104 168.896Z" fill="#C72128"/>
<path d="M164.333 160.154L162.055 162.434L170.791 171.151L173.069 168.871L164.333 160.154Z" fill="#C72128"/>
<path d="M162.043 168.889L164.324 171.165L173.049 162.436L170.767 160.16L162.043 168.889Z" fill="#C72128"/>
<path d="M187.28 160.153L185.002 162.433L193.739 171.15L196.017 168.87L187.28 160.153Z" fill="#C72128"/>
<path d="M184.983 168.883L187.265 171.159L195.989 162.43L193.708 160.154L184.983 168.883Z" fill="#C72128"/>
<path d="M210.208 160.135L207.93 162.414L216.666 171.131L218.944 168.852L210.208 160.135Z" fill="#C72128"/>
<path d="M207.939 168.876L210.221 171.152L218.945 162.423L216.664 160.147L207.939 168.876Z" fill="#C72128"/>
<path d="M118.451 181.668L116.173 183.947L124.909 192.664L127.187 190.385L118.451 181.668Z" fill="#C72128"/>
<path d="M116.173 190.361L118.454 192.637L127.178 183.908L124.897 181.631L116.173 190.361Z" fill="#C72128"/>
<path d="M141.397 181.633L139.119 183.912L147.856 192.629L150.134 190.35L141.397 181.633Z" fill="#C72128"/>
<path d="M139.129 190.355L141.41 192.631L150.135 183.902L147.853 181.626L139.129 190.355Z" fill="#C72128"/>
<path d="M164.356 181.618L162.078 183.897L170.815 192.614L173.093 190.335L164.356 181.618Z" fill="#C72128"/>
<path d="M162.056 190.335L164.337 192.611L173.061 183.882L170.78 181.606L162.056 190.335Z" fill="#C72128"/>
<path d="M187.285 181.6L185.007 183.879L193.743 192.596L196.021 190.317L187.285 181.6Z" fill="#C72128"/>
<path d="M184.995 190.329L187.276 192.605L196.001 183.876L193.719 181.6L184.995 190.329Z" fill="#C72128"/>
<path d="M210.23 181.581L207.952 183.86L216.689 192.577L218.967 190.298L210.23 181.581Z" fill="#C72128"/>
<path d="M207.951 190.322L210.232 192.599L218.957 183.869L216.675 181.593L207.951 190.322Z" fill="#C72128"/>
<path d="M118.385 68.8212L116.106 71.1006L124.843 79.8176L127.121 77.5382L118.385 68.8212Z" fill="#C72128"/>
<path d="M116.105 77.5422L118.387 79.8184L127.111 71.0892L124.83 68.813L116.105 77.5422Z" fill="#C72128"/>
<path d="M141.313 68.8212L139.035 71.1006L147.772 79.8175L150.05 77.5382L141.313 68.8212Z" fill="#C72128"/>
<path d="M139.026 77.5363L141.308 79.8125L150.032 71.0834L147.751 68.8072L139.026 77.5363Z" fill="#C72128"/>
<path d="M164.26 68.8017L161.981 71.0811L170.718 79.798L172.996 77.5187L164.26 68.8017Z" fill="#C72128"/>
<path d="M161.983 77.5295L164.265 79.8057L172.989 71.0765L170.708 68.8004L161.983 77.5295Z" fill="#C72128"/>
<path d="M187.2 68.7705L184.922 71.0498L193.658 79.7668L195.937 77.4874L187.2 68.7705Z" fill="#C72128"/>
<path d="M184.909 77.51L187.19 79.7861L195.915 71.057L193.634 68.7808L184.909 77.51Z" fill="#C72128"/>
<path d="M210.159 68.7646L207.881 71.0439L216.617 79.7609L218.895 77.4816L210.159 68.7646Z" fill="#C72128"/>
<path d="M207.86 77.4914L210.142 79.7676L218.866 71.0384L216.585 68.7623L207.86 77.4914Z" fill="#C72128"/>
<path d="M118.397 91.8837L116.119 94.1631L124.856 102.88L127.134 100.601L118.397 91.8837Z" fill="#C72128"/>
<path d="M116.105 100.61L118.387 102.886L127.111 94.1566L124.83 91.8804L116.105 100.61Z" fill="#C72128"/>
<path d="M141.344 91.8652L139.065 94.1445L147.802 102.861L150.08 100.582L141.344 91.8652Z" fill="#C72128"/>
<path d="M139.062 100.603L141.344 102.879L150.068 94.1498L147.787 91.8736L139.062 100.603Z" fill="#C72128"/>
<path d="M164.271 91.8642L161.993 94.1436L170.73 102.861L173.008 100.581L164.271 91.8642Z" fill="#C72128"/>
<path d="M161.982 100.597L164.264 102.873L172.988 94.1439L170.707 91.8677L161.982 100.597Z" fill="#C72128"/>
<path d="M187.231 91.8154L184.953 94.0947L193.69 102.812L195.968 100.532L187.231 91.8154Z" fill="#C72128"/>
<path d="M184.928 100.56L187.209 102.836L195.933 94.1068L193.652 91.8306L184.928 100.56Z" fill="#C72128"/>
<path d="M210.159 91.7968L207.881 94.0762L216.617 102.793L218.895 100.514L210.159 91.7968Z" fill="#C72128"/>
<path d="M207.885 100.554L210.166 102.83L218.89 94.1009L216.609 91.8248L207.885 100.554Z" fill="#C72128"/>
<path d="M118.408 113.342L116.13 115.621L124.866 124.338L127.145 122.059L118.408 113.342Z" fill="#C72128"/>
<path d="M116.131 122.068L118.412 124.344L127.136 115.615L124.855 113.338L116.131 122.068Z" fill="#C72128"/>
<path d="M141.349 113.311L139.071 115.591L147.808 124.308L150.086 122.028L141.349 113.311Z" fill="#C72128"/>
<path d="M139.057 122.049L141.338 124.325L150.062 115.596L147.781 113.32L139.057 122.049Z" fill="#C72128"/>
<path d="M164.295 113.293L162.017 115.572L170.753 124.289L173.031 122.01L164.295 113.293Z" fill="#C72128"/>
<path d="M161.996 122.043L164.277 124.319L173.002 115.59L170.72 113.314L161.996 122.043Z" fill="#C72128"/>
<path d="M187.224 113.273L184.946 115.553L193.683 124.27L195.961 121.99L187.224 113.273Z" fill="#C72128"/>
<path d="M184.971 122.018L187.252 124.294L195.976 115.565L193.695 113.289L184.971 122.018Z" fill="#C72128"/>
<path d="M210.182 113.261L207.904 115.54L216.641 124.257L218.919 121.978L210.182 113.261Z" fill="#C72128"/>
<path d="M207.896 121.999L210.178 124.275L218.902 115.546L216.621 113.27L207.896 121.999Z" fill="#C72128"/>
<path d="M118.323 0.513623L116.045 2.79297L124.781 11.5099L127.06 9.23059L118.323 0.513623Z" fill="#C72128"/>
<path d="M116.045 9.24923L118.326 11.5254L127.051 2.79625L124.769 0.520082L116.045 9.24923Z" fill="#C72128"/>
<path d="M141.264 0.482373L138.986 2.76172L147.723 11.4787L150.001 9.19934L141.264 0.482373Z" fill="#C72128"/>
<path d="M138.989 9.23067L141.271 11.5068L149.995 2.77769L147.714 0.501527L138.989 9.23067Z" fill="#C72128"/>
<path d="M164.223 0.476514L161.945 2.75586L170.682 11.4728L172.96 9.19348L164.223 0.476514Z" fill="#C72128"/>
<path d="M161.94 9.21114L164.222 11.4873L172.946 2.75816L170.665 0.481996L161.94 9.21114Z" fill="#C72128"/>
<path d="M187.169 0.475537L184.891 2.75488L193.627 11.4718L195.905 9.1925L187.169 0.475537Z" fill="#C72128"/>
<path d="M184.897 9.1877L187.179 11.4639L195.903 2.73472L193.622 0.458558L184.897 9.1877Z" fill="#C72128"/>
<path d="M210.097 0.456983L207.819 2.73633L216.556 11.4533L218.834 9.17395L210.097 0.456983Z" fill="#C72128"/>
<path d="M207.836 9.18184L210.117 11.458L218.842 2.72886L216.56 0.452699L207.836 9.18184Z" fill="#C72128"/>
<path d="M118.337 23.5576L116.059 25.8369L124.795 34.5539L127.073 32.2745L118.337 23.5576Z" fill="#C72128"/>
<path d="M116.063 32.2981L118.345 34.5742L127.069 25.8451L124.788 23.5689L116.063 32.2981Z" fill="#C72128"/>
<path d="M141.282 23.5566L139.004 25.8359L147.74 34.5529L150.019 32.2736L141.282 23.5566Z" fill="#C72128"/>
<path d="M139.02 32.2922L141.301 34.5684L150.025 25.8392L147.744 23.5631L139.02 32.2922Z" fill="#C72128"/>
<path d="M164.24 23.5253L161.962 25.8047L170.698 34.5217L172.977 32.2423L164.24 23.5253Z" fill="#C72128"/>
<path d="M161.945 32.2727L164.227 34.5488L172.951 25.8197L170.67 23.5435L161.945 32.2727Z" fill="#C72128"/>
<path d="M187.182 23.5195L184.904 25.7988L193.641 34.5158L195.919 32.2364L187.182 23.5195Z" fill="#C72128"/>
<path d="M184.897 32.2541L187.179 34.5303L195.903 25.8011L193.622 23.525L184.897 32.2541Z" fill="#C72128"/>
<path d="M210.128 23.5185L207.85 25.7979L216.586 34.5148L218.864 32.2355L210.128 23.5185Z" fill="#C72128"/>
<path d="M207.854 32.2482L210.136 34.5244L218.86 25.7953L216.579 23.5191L207.854 32.2482Z" fill="#C72128"/>
<path d="M118.359 45.0214L116.081 47.3008L124.818 56.0177L127.096 53.7384L118.359 45.0214Z" fill="#C72128"/>
<path d="M116.075 53.7443L118.356 56.0205L127.081 47.2914L124.8 45.0152L116.075 53.7443Z" fill="#C72128"/>
<path d="M141.305 45.0029L139.027 47.2822L147.764 55.9992L150.042 53.7198L141.305 45.0029Z" fill="#C72128"/>
<path d="M139.032 53.7385L141.313 56.0146L150.038 47.2855L147.757 45.0093L139.032 53.7385Z" fill="#C72128"/>
<path d="M164.234 44.9843L161.956 47.2637L170.693 55.9806L172.971 53.7013L164.234 44.9843Z" fill="#C72128"/>
<path d="M161.972 53.7316L164.253 56.0078L172.977 47.2787L170.696 45.0025L161.972 53.7316Z" fill="#C72128"/>
<path d="M187.192 44.9706L184.914 47.25L193.651 55.967L195.929 53.6876L187.192 44.9706Z" fill="#C72128"/>
<path d="M184.897 53.7121L187.179 55.9883L195.903 47.2591L193.622 44.983L184.897 53.7121Z" fill="#C72128"/>
<path d="M210.133 44.9648L207.854 47.2441L216.591 55.9611L218.869 53.6818L210.133 44.9648Z" fill="#C72128"/>
<path d="M207.866 53.676L210.147 55.9521L218.872 47.223L216.591 44.9468L207.866 53.676Z" fill="#C72128"/>
<path d="M230.909 205.372L228.631 207.651L237.367 216.368L239.645 214.089L230.909 205.372Z" fill="#C72128"/>
<path d="M228.627 214.104L230.908 216.38L239.633 207.651L237.351 205.375L228.627 214.104Z" fill="#C72128"/>
<path d="M253.855 205.353L251.577 207.633L260.314 216.35L262.592 214.07L253.855 205.353Z" fill="#C72128"/>
<path d="M251.584 214.097L253.865 216.373L262.59 207.644L260.308 205.368L251.584 214.097Z" fill="#C72128"/>
<path d="M276.827 205.352L274.549 207.632L283.285 216.349L285.563 214.069L276.827 205.352Z" fill="#C72128"/>
<path d="M274.523 214.067L276.805 216.343L285.529 207.614L283.248 205.337L274.523 214.067Z" fill="#C72128"/>
<path d="M299.754 205.334L297.476 207.613L306.212 216.33L308.49 214.051L299.754 205.334Z" fill="#C72128"/>
<path d="M297.461 214.06L299.742 216.336L308.467 207.607L306.185 205.331L297.461 214.06Z" fill="#C72128"/>
<path d="M322.701 205.298L320.423 207.577L329.159 216.294L331.437 214.015L322.701 205.298Z" fill="#C72128"/>
<path d="M320.437 214.053L322.719 216.329L331.443 207.6L329.162 205.324L320.437 214.053Z" fill="#C72128"/>
<path d="M230.939 228.435L228.661 230.714L237.398 239.431L239.676 237.151L230.939 228.435Z" fill="#C72128"/>
<path d="M228.645 237.171L230.927 239.447L239.651 230.718L237.37 228.442L228.645 237.171Z" fill="#C72128"/>
<path d="M253.867 228.416L251.589 230.695L260.325 239.412L262.604 237.133L253.867 228.416Z" fill="#C72128"/>
<path d="M251.583 237.165L253.864 239.441L262.589 230.712L260.307 228.436L251.583 237.165Z" fill="#C72128"/>
<path d="M276.827 228.385L274.549 230.664L283.285 239.381L285.563 237.102L276.827 228.385Z" fill="#C72128"/>
<path d="M274.528 237.128L276.81 239.404L285.534 230.675L283.253 228.399L274.528 237.128Z" fill="#C72128"/>
<path d="M299.784 228.378L297.506 230.657L306.242 239.374L308.521 237.095L299.784 228.378Z" fill="#C72128"/>
<path d="M297.497 237.109L299.778 239.385L308.503 230.656L306.221 228.379L297.497 237.109Z" fill="#C72128"/>
<path d="M322.713 228.378L320.435 230.657L329.171 239.374L331.449 237.095L322.713 228.378Z" fill="#C72128"/>
<path d="M320.436 237.103L322.717 239.379L331.441 230.65L329.16 228.374L320.436 237.103Z" fill="#C72128"/>
<path d="M230.944 249.898L228.666 252.178L237.403 260.895L239.681 258.615L230.944 249.898Z" fill="#C72128"/>
<path d="M228.657 258.616L230.938 260.893L239.663 252.163L237.382 249.887L228.657 258.616Z" fill="#C72128"/>
<path d="M253.89 249.862L251.612 252.142L260.349 260.859L262.627 258.579L253.89 249.862Z" fill="#C72128"/>
<path d="M251.597 258.611L253.878 260.887L262.602 252.158L260.321 249.881L251.597 258.611Z" fill="#C72128"/>
<path d="M276.837 249.825L274.559 252.104L283.295 260.821L285.573 258.542L276.837 249.825Z" fill="#C72128"/>
<path d="M274.571 258.586L276.853 260.862L285.577 252.133L283.296 249.857L274.571 258.586Z" fill="#C72128"/>
<path d="M299.777 249.812L297.499 252.092L306.236 260.809L308.514 258.529L299.777 249.812Z" fill="#C72128"/>
<path d="M297.497 258.568L299.778 260.844L308.503 252.115L306.221 249.838L297.497 258.568Z" fill="#C72128"/>
<path d="M322.736 249.824L320.458 252.104L329.195 260.82L331.473 258.541L322.736 249.824Z" fill="#C72128"/>
<path d="M320.431 258.549L322.712 260.825L331.436 252.096L329.155 249.82L320.431 258.549Z" fill="#C72128"/>
<path d="M230.878 137.034L228.6 139.313L237.336 148.03L239.614 145.751L230.878 137.034Z" fill="#C72128"/>
<path d="M228.59 145.799L230.871 148.075L239.595 139.346L237.314 137.07L228.59 145.799Z" fill="#C72128"/>
<path d="M253.819 137.046L251.541 139.325L260.278 148.042L262.556 145.763L253.819 137.046Z" fill="#C72128"/>
<path d="M251.543 145.762L253.824 148.038L262.549 139.309L260.267 137.033L251.543 145.762Z" fill="#C72128"/>
<path d="M276.765 137.027L274.487 139.307L283.224 148.024L285.502 145.744L276.765 137.027Z" fill="#C72128"/>
<path d="M274.463 145.774L276.744 148.05L285.468 139.321L283.187 137.044L274.463 145.774Z" fill="#C72128"/>
<path d="M299.693 137.009L297.415 139.288L306.152 148.005L308.43 145.726L299.693 137.009Z" fill="#C72128"/>
<path d="M297.419 145.749L299.7 148.025L308.425 139.296L306.143 137.02L297.419 145.749Z" fill="#C72128"/>
<path d="M322.652 136.995L320.374 139.274L329.111 147.991L331.389 145.712L322.652 136.995Z" fill="#C72128"/>
<path d="M320.363 145.731L322.645 148.007L331.369 139.278L329.088 137.002L320.363 145.731Z" fill="#C72128"/>
<path d="M230.878 160.108L228.6 162.388L237.336 171.105L239.614 168.825L230.878 160.108Z" fill="#C72128"/>
<path d="M228.603 168.861L230.884 171.137L239.608 162.408L237.327 160.131L228.603 168.861Z" fill="#C72128"/>
<path d="M253.836 160.095L251.558 162.374L260.294 171.091L262.572 168.812L253.836 160.095Z" fill="#C72128"/>
<path d="M251.546 168.841L253.827 171.117L262.552 162.388L260.27 160.112L251.546 168.841Z" fill="#C72128"/>
<path d="M276.776 160.089L274.498 162.368L283.235 171.085L285.513 168.806L276.776 160.089Z" fill="#C72128"/>
<path d="M274.497 168.822L276.778 171.099L285.503 162.369L283.221 160.093L274.497 168.822Z" fill="#C72128"/>
<path d="M299.722 160.07L297.444 162.35L306.181 171.067L308.459 168.787L299.722 160.07Z" fill="#C72128"/>
<path d="M297.437 168.817L299.718 171.093L308.442 162.364L306.161 160.087L297.437 168.817Z" fill="#C72128"/>
<path d="M322.666 160.039L320.388 162.318L329.124 171.035L331.402 168.756L322.666 160.039Z" fill="#C72128"/>
<path d="M320.382 168.78L322.663 171.056L331.387 162.327L329.106 160.05L320.382 168.78Z" fill="#C72128"/>
<path d="M230.901 181.572L228.623 183.852L237.36 192.569L239.638 190.289L230.901 181.572Z" fill="#C72128"/>
<path d="M228.598 190.306L230.879 192.582L239.603 183.853L237.322 181.577L228.598 190.306Z" fill="#C72128"/>
<path d="M253.842 181.541L251.563 183.82L260.3 192.537L262.578 190.258L253.842 181.541Z" fill="#C72128"/>
<path d="M251.541 190.287L253.822 192.563L262.547 183.834L260.265 181.558L251.541 190.287Z" fill="#C72128"/>
<path d="M276.802 181.535L274.523 183.814L283.26 192.531L285.538 190.252L276.802 181.535Z" fill="#C72128"/>
<path d="M274.511 190.268L276.792 192.544L285.516 183.815L283.235 181.539L274.511 190.268Z" fill="#C72128"/>
<path d="M299.728 181.517L297.45 183.796L306.187 192.513L308.465 190.234L299.728 181.517Z" fill="#C72128"/>
<path d="M297.449 190.262L299.73 192.538L308.455 183.809L306.174 181.533L297.449 190.262Z" fill="#C72128"/>
<path d="M322.676 181.498L320.397 183.777L329.134 192.494L331.412 190.215L322.676 181.498Z" fill="#C72128"/>
<path d="M320.406 190.238L322.688 192.514L331.412 183.785L329.131 181.508L320.406 190.238Z" fill="#C72128"/>
<path d="M230.83 68.7568L228.552 71.0361L237.288 79.7531L239.566 77.4738L230.83 68.7568Z" fill="#C72128"/>
<path d="M228.543 77.4758L230.824 79.752L239.549 71.0228L237.267 68.7467L228.543 77.4758Z" fill="#C72128"/>
<path d="M253.758 68.7206L251.479 71L260.216 79.717L262.494 77.4376L253.758 68.7206Z" fill="#C72128"/>
<path d="M251.481 77.4699L253.763 79.7461L262.487 71.0169L260.206 68.7408L251.481 77.4699Z" fill="#C72128"/>
<path d="M276.717 68.707L274.438 70.9863L283.175 79.7033L285.453 77.424L276.717 68.707Z" fill="#C72128"/>
<path d="M274.443 77.4514L276.725 79.7275L285.449 70.9984L283.168 68.7222L274.443 77.4514Z" fill="#C72128"/>
<path d="M299.662 68.6884L297.384 70.9678L306.12 79.6847L308.398 77.4054L299.662 68.6884Z" fill="#C72128"/>
<path d="M297.382 77.4445L299.663 79.7207L308.387 70.9916L306.106 68.7154L297.382 77.4445Z" fill="#C72128"/>
<path d="M322.608 68.6874L320.33 70.9668L329.067 79.6838L331.345 77.4044L322.608 68.6874Z" fill="#C72128"/>
<path d="M320.303 77.4387L322.584 79.7148L331.308 70.9857L329.027 68.7095L320.303 77.4387Z" fill="#C72128"/>
<path d="M230.843 91.8007L228.564 94.0801L237.301 102.797L239.579 100.518L230.843 91.8007Z" fill="#C72128"/>
<path d="M228.561 100.543L230.842 102.819L239.566 94.0902L237.285 91.814L228.561 100.543Z" fill="#C72128"/>
<path d="M253.788 91.7822L251.51 94.0615L260.246 102.778L262.524 100.499L253.788 91.7822Z" fill="#C72128"/>
<path d="M251.517 100.519L253.798 102.795L262.522 94.0658L260.241 91.7896L251.517 100.519Z" fill="#C72128"/>
<path d="M276.734 91.7812L274.456 94.0605L283.193 102.778L285.471 100.498L276.734 91.7812Z" fill="#C72128"/>
<path d="M274.438 100.513L276.72 102.789L285.444 94.0599L283.163 91.7838L274.438 100.513Z" fill="#C72128"/>
<path d="M299.675 91.7499L297.396 94.0293L306.133 102.746L308.411 100.467L299.675 91.7499Z" fill="#C72128"/>
<path d="M297.382 100.493L299.663 102.77L308.387 94.0404L306.106 91.7642L297.382 100.493Z" fill="#C72128"/>
<path d="M322.622 91.7314L320.344 94.0107L329.08 102.728L331.358 100.448L322.622 91.7314Z" fill="#C72128"/>
<path d="M320.339 100.487L322.62 102.763L331.344 94.0336L329.063 91.7574L320.339 100.487Z" fill="#C72128"/>
<path d="M230.865 113.247L228.587 115.526L237.323 124.243L239.602 121.964L230.865 113.247Z" fill="#C72128"/>
<path d="M228.591 121.971L230.872 124.247L239.596 115.518L237.315 113.242L228.591 121.971Z" fill="#C72128"/>
<path d="M253.812 113.247L251.534 115.526L260.271 124.243L262.549 121.964L253.812 113.247Z" fill="#C72128"/>
<path d="M251.53 121.965L253.812 124.241L262.536 115.512L260.255 113.236L251.53 121.965Z" fill="#C72128"/>
<path d="M276.739 113.245L274.461 115.524L283.197 124.241L285.476 121.962L276.739 113.245Z" fill="#C72128"/>
<path d="M274.45 121.976L276.731 124.252L285.456 115.523L283.175 113.247L274.45 121.976Z" fill="#C72128"/>
<path d="M299.698 113.197L297.42 115.477L306.156 124.194L308.435 121.914L299.698 113.197Z" fill="#C72128"/>
<path d="M297.395 121.941L299.676 124.217L308.4 115.488L306.119 113.211L297.395 121.941Z" fill="#C72128"/>
<path d="M322.628 113.196L320.35 115.476L329.086 124.193L331.364 121.913L322.628 113.196Z" fill="#C72128"/>
<path d="M320.353 121.934L322.634 124.21L331.358 115.481L329.077 113.205L320.353 121.934Z" fill="#C72128"/>
<path d="M230.786 0.44918L228.508 2.72852L237.244 11.4455L239.522 9.16614L230.786 0.44918Z" fill="#C72128"/>
<path d="M228.5 9.18381L230.781 11.46L239.506 2.73082L237.224 0.454662L228.5 9.18381Z" fill="#C72128"/>
<path d="M253.727 0.417911L251.449 2.69727L260.186 11.4142L262.464 9.13487L253.727 0.417911Z" fill="#C72128"/>
<path d="M251.444 9.14765L253.726 11.4238L262.45 2.69468L260.169 0.41851L251.444 9.14765Z" fill="#C72128"/>
<path d="M276.655 0.399375L274.377 2.67871L283.114 11.3957L285.392 9.11634L276.655 0.399375Z" fill="#C72128"/>
<path d="M274.383 9.14084L276.664 11.417L285.388 2.68785L283.107 0.411693L274.383 9.14084Z" fill="#C72128"/>
<path d="M299.601 0.38082L297.323 2.66016L306.06 11.3771L308.338 9.09778L299.601 0.38082Z" fill="#C72128"/>
<path d="M297.34 9.13498L299.621 11.4111L308.345 2.68199L306.064 0.405834L297.34 9.13498Z" fill="#C72128"/>
<path d="M322.573 0.380801L320.295 2.66016L329.031 11.3771L331.31 9.09776L322.573 0.380801Z" fill="#C72128"/>
<path d="M320.297 9.08613L322.578 11.3623L331.302 2.63316L329.021 0.356987L320.297 9.08613Z" fill="#C72128"/>
<path d="M230.799 23.4931L228.521 25.7725L237.257 34.4894L239.535 32.2101L230.799 23.4931Z" fill="#C72128"/>
<path d="M228.518 32.2326L230.799 34.5088L239.523 25.7796L237.242 23.5035L228.518 32.2326Z" fill="#C72128"/>
<path d="M253.758 23.4804L251.479 25.7598L260.216 34.4767L262.494 32.1974L253.758 23.4804Z" fill="#C72128"/>
<path d="M251.444 32.2141L253.726 34.4902L262.45 25.7611L260.169 23.4849L251.444 32.2141Z" fill="#C72128"/>
<path d="M276.668 23.4443L274.39 25.7236L283.126 34.4406L285.404 32.1613L276.668 23.4443Z" fill="#C72128"/>
<path d="M274.401 32.2082L276.683 34.4844L285.407 25.7552L283.126 23.4791L274.401 32.2082Z" fill="#C72128"/>
<path d="M299.614 23.4433L297.336 25.7227L306.072 34.4396L308.351 32.1603L299.614 23.4433Z" fill="#C72128"/>
<path d="M297.358 32.1838L299.64 34.46L308.364 25.7308L306.083 23.4546L297.358 32.1838Z" fill="#C72128"/>
<path d="M322.559 23.4423L320.281 25.7217L329.018 34.4386L331.296 32.1593L322.559 23.4423Z" fill="#C72128"/>
<path d="M320.278 32.1955L322.56 34.4717L331.284 25.7425L329.003 23.4664L320.278 32.1955Z" fill="#C72128"/>
<path d="M230.804 44.9394L228.526 47.2188L237.263 55.9357L239.541 53.6564L230.804 44.9394Z" fill="#C72128"/>
<path d="M228.531 53.6789L230.812 55.9551L239.537 47.2259L237.256 44.9498L228.531 53.6789Z" fill="#C72128"/>
<path d="M253.751 44.9384L251.473 47.2178L260.209 55.9347L262.487 53.6554L253.751 44.9384Z" fill="#C72128"/>
<path d="M251.47 53.6721L253.751 55.9482L262.475 47.2191L260.194 44.9429L251.47 53.6721Z" fill="#C72128"/>
<path d="M276.691 44.8896L274.413 47.1689L283.15 55.8859L285.428 53.6066L276.691 44.8896Z" fill="#C72128"/>
<path d="M274.432 53.6359L276.713 55.9121L285.437 47.183L283.156 44.9068L274.432 53.6359Z" fill="#C72128"/>
<path d="M299.638 44.8896L297.36 47.1689L306.097 55.8859L308.375 53.6066L299.638 44.8896Z" fill="#C72128"/>
<path d="M297.353 53.6301L299.634 55.9062L308.358 47.1771L306.077 44.9009L297.353 53.6301Z" fill="#C72128"/>
<path d="M322.584 44.8886L320.306 47.168L329.042 55.8849L331.32 53.6056L322.584 44.8886Z" fill="#C72128"/>
<path d="M320.291 53.6418L322.572 55.918L331.297 47.1888L329.015 44.9127L320.291 53.6418Z" fill="#C72128"/>
<path d="M346.987 205.303L344.709 207.582L353.446 216.299L355.724 214.02L346.987 205.303Z" fill="#C72128"/>
<path d="M344.689 214.019L346.971 216.295L355.695 207.566L353.414 205.29L344.689 214.019Z" fill="#C72128"/>
<path d="M369.916 205.266L367.638 207.545L376.374 216.262L378.652 213.983L369.916 205.266Z" fill="#C72128"/>
<path d="M367.61 214.012L369.892 216.288L378.616 207.559L376.335 205.283L367.61 214.012Z" fill="#C72128"/>
<path d="M346.988 228.358L344.71 230.638L353.446 239.355L355.725 237.075L346.988 228.358Z" fill="#C72128"/>
<path d="M344.702 237.097L346.983 239.373L355.708 230.644L353.426 228.368L344.702 237.097Z" fill="#C72128"/>
<path d="M369.946 228.345L367.668 230.624L376.405 239.341L378.683 237.062L369.946 228.345Z" fill="#C72128"/>
<path d="M367.629 237.078L369.91 239.354L378.635 230.625L376.353 228.349L367.629 237.078Z" fill="#C72128"/>
<path d="M346.993 249.805L344.715 252.084L353.451 260.801L355.729 258.522L346.993 249.805Z" fill="#C72128"/>
<path d="M344.715 258.543L346.996 260.819L355.72 252.09L353.439 249.814L344.715 258.543Z" fill="#C72128"/>
<path d="M369.939 249.804L367.661 252.083L376.398 260.8L378.676 258.521L369.939 249.804Z" fill="#C72128"/>
<path d="M367.653 258.536L369.935 260.812L378.659 252.083L376.378 249.807L367.653 258.536Z" fill="#C72128"/>
<path d="M346.926 136.976L344.647 139.255L353.384 147.972L355.662 145.692L346.926 136.976Z" fill="#C72128"/>
<path d="M344.629 145.725L346.91 148.001L355.635 139.272L353.353 136.996L344.629 145.725Z" fill="#C72128"/>
<path d="M369.854 136.939L367.576 139.219L376.313 147.936L378.591 145.656L369.854 136.939Z" fill="#C72128"/>
<path d="M367.603 145.7L369.885 147.977L378.609 139.247L376.328 136.971L367.603 145.7Z" fill="#C72128"/>
<path d="M346.938 160.037L344.66 162.316L353.397 171.033L355.675 168.754L346.938 160.037Z" fill="#C72128"/>
<path d="M344.665 168.774L346.946 171.05L355.671 162.321L353.389 160.045L344.665 168.774Z" fill="#C72128"/>
<path d="M369.885 160.019L367.606 162.298L376.343 171.015L378.621 168.735L369.885 160.019Z" fill="#C72128"/>
<path d="M367.603 168.767L369.885 171.043L378.609 162.314L376.328 160.038L367.603 168.767Z" fill="#C72128"/>
<path d="M346.963 181.483L344.685 183.763L353.421 192.48L355.699 190.2L346.963 181.483Z" fill="#C72128"/>
<path d="M344.678 190.22L346.959 192.496L355.683 183.767L353.402 181.491L344.678 190.22Z" fill="#C72128"/>
<path d="M369.891 181.465L367.613 183.744L376.35 192.461L378.628 190.182L369.891 181.465Z" fill="#C72128"/>
<path d="M367.599 190.213L369.88 192.489L378.604 183.76L376.323 181.484L367.599 190.213Z" fill="#C72128"/>
<path d="M346.865 68.6679L344.587 70.9473L353.323 79.6642L355.602 77.3849L346.865 68.6679Z" fill="#C72128"/>
<path d="M344.587 77.4143L346.868 79.6904L355.593 70.9613L353.311 68.6851L344.587 77.4143Z" fill="#C72128"/>
<path d="M369.836 68.6494L367.558 70.9287L376.294 79.6457L378.572 77.3663L369.836 68.6494Z" fill="#C72128"/>
<path d="M367.543 77.383L369.824 79.6592L378.549 70.93L376.267 68.6539L367.543 77.383Z" fill="#C72128"/>
<path d="M346.878 91.7295L344.6 94.0088L353.336 102.726L355.614 100.446L346.878 91.7295Z" fill="#C72128"/>
<path d="M344.587 100.481L346.868 102.757L355.593 94.0277L353.311 91.7515L344.587 100.481Z" fill="#C72128"/>
<path d="M369.818 91.6806L367.54 93.96L376.277 102.677L378.555 100.398L369.818 91.6806Z" fill="#C72128"/>
<path d="M367.549 100.445L369.83 102.721L378.554 93.9916L376.273 91.7154L367.549 100.445Z" fill="#C72128"/>
<path d="M346.901 113.176L344.623 115.455L353.36 124.172L355.638 121.893L346.901 113.176Z" fill="#C72128"/>
<path d="M344.6 121.927L346.881 124.203L355.605 115.474L353.324 113.198L344.6 121.927Z" fill="#C72128"/>
<path d="M369.83 113.14L367.552 115.419L376.288 124.136L378.566 121.857L369.83 113.14Z" fill="#C72128"/>
<path d="M367.574 121.903L369.855 124.179L378.58 115.45L376.299 113.173L367.574 121.903Z" fill="#C72128"/>
<path d="M346.829 0.360312L344.551 2.63965L353.287 11.3566L355.565 9.07728L346.829 0.360312Z" fill="#C72128"/>
<path d="M344.544 9.09689L346.825 11.373L355.55 2.6439L353.268 0.367748L344.544 9.09689Z" fill="#C72128"/>
<path d="M369.776 0.359336L367.498 2.63867L376.235 11.3556L378.513 9.0763L369.776 0.359336Z" fill="#C72128"/>
<path d="M367.483 9.09103L369.765 11.3672L378.489 2.63804L376.208 0.361888L367.483 9.09103Z" fill="#C72128"/>
<path d="M346.859 23.4218L344.581 25.7012L353.318 34.4181L355.596 32.1388L346.859 23.4218Z" fill="#C72128"/>
<path d="M344.562 32.1457L346.843 34.4219L355.567 25.6927L353.286 23.4166L344.562 32.1457Z" fill="#C72128"/>
<path d="M369.788 23.4033L367.51 25.6826L376.246 34.3996L378.524 32.1202L369.788 23.4033Z" fill="#C72128"/>
<path d="M367.519 32.1398L369.801 34.416L378.525 25.6869L376.244 23.4107L367.519 32.1398Z" fill="#C72128"/>
<path d="M346.865 44.8681L344.587 47.1475L353.323 55.8644L355.602 53.5851L346.865 44.8681Z" fill="#C72128"/>
<path d="M344.574 53.592L346.855 55.8682L355.58 47.139L353.299 44.8628L344.574 53.592Z" fill="#C72128"/>
<path d="M369.809 44.8496L367.531 47.1289L376.268 55.8459L378.546 53.5665L369.809 44.8496Z" fill="#C72128"/>
<path d="M367.53 53.5861L369.812 55.8623L378.536 47.1332L376.255 44.857L367.53 53.5861Z" fill="#C72128"/>
</svg>
