<svg width="223" height="448" viewBox="0 0 223 448" fill="none" xmlns="http://www.w3.org/2000/svg">
<path d="M92.4411 19.7324C89.5488 14.0228 85.3297 7.83629 84.5084 8.76208C83.6936 9.72633 86.5695 17.4462 89.4618 23.1557C89.7271 23.6887 89.9859 24.1833 90.2448 24.6779C90.1217 25.6449 89.8694 27.704 89.5572 30.2971C89.5412 30.2827 89.5603 30.2345 89.5379 30.1817L88.7549 28.6595C88.6559 28.4722 88.4646 28.4632 88.315 28.6223L87.3251 29.7554C87.1754 29.9146 87.1439 30.2128 87.243 30.4001L88.026 31.9223C88.026 31.9223 88.1377 32.0229 88.2015 32.0804L89.0964 33.8668C88.8283 36.075 88.5254 38.4805 88.2416 40.8378L87.4746 39.33C87.3755 39.1428 87.1842 39.1337 87.0346 39.2928L86.0447 40.4259C85.8951 40.5851 85.8636 40.8834 85.9627 41.0706L86.7456 42.5928C86.7456 42.5928 86.8573 42.6935 86.9212 42.751L87.7937 44.4845C87.0684 50.527 86.4756 55.5784 86.5013 55.7322C86.572 56.1552 87.7798 58.3542 87.7798 58.3542C88.0451 58.8872 88.3006 59.2808 88.3452 59.223C88.3643 59.1748 88.1116 58.5552 87.8623 58.0365L90.7106 47.0151C90.9406 47.4184 91.1705 47.6582 91.2245 47.5763C91.3136 47.4606 91.1632 46.9657 90.8979 46.4326L90.866 46.4039L91.4338 44.2044C91.6574 44.5693 91.8617 44.8187 91.9413 44.7271C92.0304 44.6114 91.8799 44.1166 91.6146 43.5835L92.1221 41.591L92.7135 40.4254C92.9659 40.8816 93.2246 41.2126 93.3137 41.0969C93.4028 40.9813 93.2523 40.4863 92.987 39.9533L92.9711 39.939L94.1474 37.5693C94.3999 38.0255 94.6521 38.3181 94.7317 38.2265C94.8208 38.1108 94.6703 37.6159 94.405 37.0828L94.3891 37.0685L95.4637 34.9012C97.4419 38.709 98.2439 40.183 99.6789 43.0114C101.13 45.8541 102.66 48.4417 104.03 50.5585C103.643 53.8347 102.826 60.3824 102.826 60.3824L103.558 62.0875L107.297 55.1031C107.636 55.5061 107.93 55.8034 108.153 56.0047C108.814 57.1233 109.249 57.7761 109.319 57.7085C109.398 57.6169 109.104 56.8291 108.58 55.638C108.506 55.2775 108.365 54.7585 108.147 54.1051L113.632 50.4243L112.731 48.9265C112.731 48.9265 108.047 48.3969 105.927 48.1194C104.964 45.684 103.794 42.8982 102.538 40.002C100.738 36.4533 99.9744 34.883 98.3539 31.5935L100.004 30.598C100.269 31.131 100.56 31.4908 100.649 31.3751C100.728 31.2835 100.6 30.8415 100.367 30.3372L102.189 29.2353L102.205 29.2497C102.47 29.7827 102.761 30.1425 102.85 30.0269C102.929 29.9353 102.811 29.4691 102.568 28.9889L103.479 28.438L104.891 28.2077C105.156 28.7408 105.447 29.1006 105.536 28.9849C105.615 28.8933 105.516 28.5425 105.337 28.1199L106.883 27.8797L106.915 27.9084C107.17 28.4655 107.47 28.8013 107.55 28.7097C107.63 28.618 107.524 28.2288 107.329 27.7918L115.128 26.5231C115.387 27.0177 115.725 27.5841 115.76 27.5504C115.805 27.4925 115.619 27.0314 115.354 26.4984C115.354 26.4984 114.286 24.1643 114.031 23.9342C113.935 23.8479 110.54 23.4011 106.497 22.8937L105.624 21.1602C105.624 21.1602 105.627 20.9341 105.589 20.8669L104.806 19.3447C104.707 19.1574 104.516 19.1484 104.366 19.3075L103.376 20.4406C103.226 20.5998 103.195 20.898 103.294 21.0853L104.061 22.5931C102.47 22.4006 100.863 22.1938 99.3711 22.0251L98.4762 20.2387C98.4762 20.2387 98.4791 20.0127 98.4408 19.9455L97.6577 18.4232C97.5587 18.236 97.3674 18.2269 97.2178 18.3861L96.2279 19.5192C96.0783 19.6783 96.0468 19.9766 96.1459 20.1639L96.9288 21.686C96.9288 21.686 96.9767 21.7292 96.9927 21.7436C95.2774 21.537 93.9096 21.3824 93.2465 21.3074C92.9876 20.8128 92.7383 20.2942 92.473 19.7611L92.4411 19.7324Z" fill="#C72128"/>
<path d="M130.507 115.639C129.777 113.217 129.031 110.781 128.26 108.355C128.052 107.678 128.226 106.855 128.675 106.541C129.124 106.227 129.67 106.49 129.878 107.167C130.665 109.608 131.427 112.058 132.147 114.504C132.355 115.182 132.156 116.014 131.691 116.314C131.414 116.521 131.092 116.46 130.852 116.244C130.693 116.1 130.578 115.899 130.491 115.625L130.507 115.639ZM127.513 99.9075C126.706 97.5149 125.884 95.108 125.036 92.7107C124.802 92.0429 124.257 91.7801 123.805 92.1565C123.362 92.5089 123.204 93.3461 123.437 94.0139C124.269 96.3968 125.101 98.7797 125.892 101.158C125.972 101.393 126.087 101.595 126.23 101.724C126.486 101.954 126.817 101.992 127.104 101.76C127.546 101.408 127.737 100.599 127.503 99.9316L127.513 99.9075ZM142.205 161.556C142.413 161.743 142.668 161.81 142.932 161.689C143.41 161.466 143.69 160.705 143.542 159.984C143.019 157.423 142.48 154.846 141.926 152.256C141.778 151.535 141.255 151.161 140.777 151.384C140.299 151.607 140.051 152.396 140.199 153.117C140.763 155.684 141.286 158.245 141.793 160.793C141.851 161.139 142.004 161.408 142.196 161.58L142.205 161.556ZM52.2576 368.333C51.4736 365.993 50.6927 363.591 49.9148 361.126C49.7067 360.449 49.1708 360.162 48.7058 360.461C48.2567 360.775 48.0665 361.584 48.265 362.285C49.0493 364.788 49.8367 367.229 50.6207 369.569C50.7007 369.804 50.8253 369.982 50.9689 370.111C51.2242 370.341 51.5558 370.379 51.8424 370.147C52.285 369.795 52.4593 368.972 52.2417 368.319L52.2576 368.333ZM122.445 85.6393C121.578 83.2902 120.685 80.9507 119.767 78.621C119.508 77.9629 118.96 77.7626 118.533 78.1293C118.097 78.5202 117.964 79.3477 118.207 79.9914C119.109 82.3068 120.001 84.6462 120.862 86.9569C120.951 87.1682 121.06 87.3314 121.188 87.4465C121.459 87.6909 121.8 87.7043 122.087 87.4726C122.513 87.1059 122.672 86.2686 122.429 85.6249L122.445 85.6393ZM138.857 146.225C139.081 146.426 139.361 146.483 139.619 146.323C140.091 146.062 140.329 145.297 140.172 144.6C139.572 142.067 138.973 139.535 138.332 136.997C138.15 136.31 137.626 135.937 137.171 136.212C136.699 136.473 136.468 137.277 136.65 137.964C137.275 140.487 137.884 142.996 138.484 145.528C138.551 145.851 138.698 146.081 138.873 146.239L138.857 146.225ZM45.6878 346.374C45.5052 345.687 44.9724 345.338 44.5169 345.613C44.0614 345.889 43.8297 346.693 44.0123 347.38C44.6851 349.946 45.3865 352.44 46.075 354.857C46.1614 355.131 46.2924 355.347 46.436 355.476C46.6753 355.692 46.9815 355.739 47.249 355.555C47.714 355.256 47.9202 354.462 47.7216 353.76C47.0331 351.343 46.3477 348.864 45.6814 346.336L45.6878 346.374ZM134.69 130.449C134.767 130.747 134.898 130.963 135.057 131.106C135.296 131.322 135.587 131.355 135.861 131.21C136.316 130.934 136.548 130.13 136.365 129.443C135.705 126.954 135.004 124.46 134.302 121.966C134.12 121.279 133.578 120.954 133.113 121.253C132.647 121.553 132.441 122.347 132.64 123.048C133.351 125.518 134.036 127.998 134.68 130.473L134.69 130.449ZM41.9608 331.29C41.7877 330.578 41.2899 330.195 40.8025 330.442C40.3311 330.703 40.077 331.454 40.2406 332.189C40.8369 334.784 41.4523 337.331 42.0548 339.801C42.1317 340.099 42.269 340.354 42.4286 340.498C42.652 340.699 42.9326 340.756 43.2066 340.611C43.678 340.35 43.9097 339.546 43.7271 338.859C43.1246 336.389 42.5156 333.88 41.9193 331.285L41.9608 331.29ZM144.032 343.082C143.503 345.676 142.952 348.217 142.378 350.705C142.239 351.331 142.405 352.003 142.772 352.334C142.82 352.377 142.884 352.435 142.932 352.478C143.394 352.732 143.914 352.35 144.082 351.652C144.665 349.14 145.235 346.551 145.774 343.933C145.926 343.221 145.664 342.462 145.175 342.218C144.703 341.989 144.191 342.409 144.039 343.121L144.032 343.082ZM140.52 358.242C139.87 360.759 139.172 363.233 138.477 365.644C138.286 366.289 138.45 367.025 138.833 367.37C138.865 367.398 138.897 367.427 138.928 367.456C139.388 367.772 139.92 367.468 140.113 366.76C140.843 364.315 141.526 361.826 142.195 359.261C142.379 358.578 142.145 357.746 141.682 357.493C141.214 357.201 140.704 357.558 140.51 358.266L140.52 358.242ZM116.988 71.6415C116.051 69.3599 115.098 67.064 114.12 64.7777C113.851 64.1437 113.293 63.9674 112.873 64.3726C112.453 64.7778 112.336 65.6198 112.604 66.2538C113.567 68.5257 114.529 70.7976 115.45 73.0648C115.524 73.2617 115.642 73.4009 115.754 73.5015C116.025 73.746 116.391 73.7497 116.688 73.4939C117.108 73.0887 117.241 72.2612 116.982 71.6031L116.988 71.6415ZM146.836 327.579C146.422 330.211 145.976 332.814 145.524 335.379C145.419 335.97 145.605 336.595 145.94 336.897C146.004 336.955 146.084 337.026 146.167 337.036C146.648 337.241 147.145 336.807 147.281 336.08C147.743 333.492 148.189 330.889 148.597 328.218C148.717 327.477 148.42 326.752 147.928 326.571C147.437 326.389 146.957 326.838 146.836 327.579ZM136.216 372.884C135.413 375.296 134.578 377.679 133.739 379.961C133.491 380.587 133.642 381.409 134.073 381.797L134.089 381.811C134.52 382.2 135.074 381.948 135.316 381.283C136.173 378.953 137.018 376.546 137.84 374.086C138.066 373.407 137.874 372.581 137.44 372.255C136.99 371.915 136.451 372.181 136.226 372.86L136.216 372.884ZM147.967 319.746C147.889 320.328 148.068 320.915 148.387 321.202C148.467 321.274 148.562 321.36 148.671 321.36C149.156 321.503 149.646 321.03 149.741 320.299C150.104 317.686 150.429 315.007 150.737 312.313C150.816 311.567 150.493 310.851 149.999 310.733C149.505 310.614 149.03 311.101 148.952 311.847C148.652 314.517 148.305 317.144 147.967 319.746ZM151.777 255.826C151.777 256.316 151.956 256.739 152.212 256.969C152.355 257.099 152.518 257.18 152.693 257.175C153.194 257.168 153.591 256.547 153.587 255.792C153.561 253.123 153.513 250.401 153.44 247.689C153.419 246.919 152.998 246.343 152.504 246.388C151.994 246.419 151.612 247.055 151.642 247.8C151.715 250.512 151.767 253.171 151.793 255.84L151.777 255.826ZM151.021 287.973C150.987 288.497 151.179 288.997 151.466 289.255C151.578 289.356 151.709 289.409 151.849 289.437C152.346 289.493 152.782 288.939 152.836 288.203C152.985 285.529 153.119 282.84 153.246 280.113C153.283 279.362 152.89 278.714 152.393 278.658C151.895 278.602 151.466 279.195 151.429 279.945C151.311 282.648 151.187 285.313 151.031 287.949L151.021 287.973ZM78.8049 417.048C77.3527 415.74 75.9194 414.219 74.5019 412.55C74.1156 412.104 73.5356 412.202 73.2399 412.785C72.9347 413.391 73.0091 414.242 73.3954 414.688C74.8767 416.415 76.3738 417.993 77.8898 419.359C78.3207 419.748 78.8814 419.534 79.1293 418.908C79.3866 418.258 79.2612 417.427 78.8304 417.038L78.8049 417.048ZM57.4464 382.351C56.5478 380.136 55.6458 377.821 54.7724 375.433C54.5293 374.79 53.9743 374.551 53.5477 374.918C53.121 375.284 52.9627 376.122 53.2058 376.765C54.1015 379.206 55.0195 381.536 55.9245 383.788C55.9981 383.985 56.1162 384.124 56.2279 384.225C56.4992 384.47 56.8658 384.473 57.1619 384.218C57.5822 383.812 57.715 382.985 57.4559 382.327L57.4464 382.351ZM98.6611 424.097C96.9369 424.405 95.2156 424.488 93.4812 424.329C92.9839 424.273 92.5543 424.866 92.517 425.616C92.4986 426.155 92.6841 426.616 92.9554 426.86C93.083 426.975 93.2138 427.028 93.3541 427.056C95.1713 427.224 97.0424 427.146 98.859 426.824C99.3467 426.74 99.706 426.052 99.6508 425.316C99.5797 424.566 99.1391 424.038 98.6515 424.121L98.6611 424.097ZM150.56 305.489C151.054 305.608 151.522 305.082 151.585 304.322C151.833 301.672 152.075 298.983 152.275 296.289C152.329 295.553 151.971 294.871 151.483 294.791C150.979 294.696 150.543 295.25 150.49 295.986C150.289 298.68 150.067 301.321 149.802 303.957C149.749 304.53 149.931 305.053 150.234 305.326C150.33 305.413 150.451 305.489 150.576 305.503L150.56 305.489ZM153.481 272.028C153.547 269.344 153.582 266.632 153.601 263.905C153.613 263.164 153.21 262.54 152.71 262.546C152.209 262.553 151.805 263.136 151.809 263.891C151.8 266.594 151.759 269.268 151.676 271.937C151.667 272.452 151.837 272.898 152.124 273.157C152.252 273.272 152.399 273.339 152.548 273.343C153.055 273.376 153.469 272.768 153.481 272.028ZM118.625 411.188C118.296 410.598 117.741 410.522 117.35 411.019C115.972 412.749 114.568 414.326 113.139 415.749C112.718 416.154 112.601 416.996 112.886 417.645C112.969 417.818 113.062 417.966 113.173 418.067C113.461 418.326 113.827 418.33 114.133 418.05C115.623 416.583 117.081 414.925 118.503 413.136C118.885 412.664 118.945 411.803 118.616 411.212L118.625 411.188ZM132.275 386.448C131.822 386.007 131.302 386.225 131.029 386.86C130.056 389.152 129.071 391.368 128.051 393.453C127.761 394.074 127.845 394.901 128.248 395.362C128.263 395.376 128.295 395.405 128.311 395.419C128.71 395.779 129.226 395.623 129.497 395.05C130.536 392.917 131.55 390.629 132.532 388.313C132.79 387.663 132.68 386.846 132.259 386.433L132.275 386.448ZM88.3888 423.137C86.7432 422.536 85.0844 421.694 83.4605 420.656C82.9915 420.364 82.4755 420.683 82.266 421.376C82.0852 421.997 82.2487 422.732 82.6317 423.077C82.6636 423.106 82.6955 423.135 82.7433 423.178C84.4566 424.264 86.2206 425.168 87.9556 425.817C88.4468 425.998 88.9275 425.55 89.0477 424.809C89.1679 424.068 88.8704 423.342 88.3793 423.161L88.3888 423.137ZM126.079 399.581C125.702 399.111 125.116 399.17 124.804 399.738C123.659 401.81 122.444 403.785 121.245 405.611C120.885 406.137 120.893 406.993 121.241 407.535C121.305 407.593 121.359 407.674 121.423 407.732C121.774 408.048 122.236 407.975 122.525 407.517C123.769 405.633 124.988 403.595 126.177 401.466C126.498 400.873 126.449 400.013 126.073 399.542L126.079 399.581ZM109.823 420.241C109.615 419.564 109.063 419.262 108.62 419.615C107.037 420.769 105.397 421.74 103.785 422.476C103.307 422.699 103.027 423.459 103.175 424.18C103.242 424.502 103.386 424.795 103.578 424.968C103.785 425.155 104.04 425.221 104.305 425.1C106.019 424.326 107.745 423.301 109.414 422.094C109.863 421.78 110.063 420.947 109.829 420.28L109.823 420.241ZM148.875 191.411C148.514 188.767 148.128 186.133 147.726 183.484C147.604 182.753 147.135 182.298 146.635 182.468C146.151 182.652 145.849 183.36 145.961 184.114C146.373 186.739 146.743 189.359 147.097 191.964C147.161 192.349 147.311 192.68 147.519 192.867C147.71 193.04 147.94 193.116 148.169 193.029C148.66 192.883 148.971 192.151 148.875 191.411ZM63.5043 395.486C62.456 393.431 61.4045 391.274 60.3815 389.046C60.1034 388.436 59.5357 388.284 59.1154 388.689C58.7111 389.109 58.6103 389.965 58.8884 390.575C59.9338 392.856 61.0077 395.065 62.0784 397.173C62.155 397.308 62.2412 397.418 62.337 397.504C62.6402 397.778 63.0578 397.762 63.3506 397.405C63.7485 396.947 63.8079 396.086 63.5043 395.486ZM145.117 177.115C145.308 177.287 145.564 177.354 145.793 177.267C146.277 177.082 146.573 176.336 146.451 175.606C146.014 172.991 145.551 170.385 145.073 167.766C144.951 167.035 144.447 166.614 143.953 166.822C143.468 167.006 143.189 167.767 143.327 168.512C143.815 171.107 144.261 173.698 144.708 176.289C144.766 176.635 144.925 176.942 145.117 177.115ZM152.794 231.493C152.748 230.734 152.317 230.182 151.813 230.251C151.31 230.319 150.944 230.97 150.99 231.73C151.14 234.413 151.29 237.096 151.392 239.736C151.402 240.202 151.591 240.601 151.83 240.816C151.99 240.96 152.162 241.017 152.363 241.002C152.857 240.958 153.248 240.298 153.203 239.538C153.094 236.86 152.953 234.152 152.787 231.455L152.794 231.493ZM150.895 224.752C151.054 224.896 151.258 224.981 151.453 224.928C151.94 224.845 152.316 224.17 152.244 223.42C152.043 220.757 151.826 218.079 151.577 215.372C151.506 214.622 151.056 214.118 150.568 214.201C150.071 214.309 149.737 214.988 149.793 215.723C150.035 218.392 150.252 221.07 150.447 223.695C150.483 224.152 150.649 224.498 150.888 224.713L150.895 224.752ZM70.5583 407.363C69.3287 405.602 68.099 403.677 66.8913 401.641C66.5527 401.075 65.9884 401.024 65.6129 401.534C65.2374 402.045 65.2034 402.897 65.5421 403.463C66.7721 405.551 68.0498 407.519 69.3177 409.348C69.3815 409.406 69.4198 409.473 69.4837 409.53C69.8347 409.847 70.2968 409.773 70.5959 409.291C70.9394 408.752 70.916 407.881 70.5583 407.363ZM149.905 199.362C149.809 198.622 149.333 198.128 148.842 198.274C148.352 198.419 148.034 199.113 148.121 199.877C148.44 202.517 148.749 205.18 149.027 207.815C149.072 208.247 149.232 208.555 149.455 208.756C149.631 208.914 149.844 208.976 150.055 208.937C150.552 208.83 150.879 208.112 150.808 207.362C150.54 204.703 150.231 202.04 149.905 199.362Z" fill="#C72128"/>
</svg>
