<svg width="306" height="451" viewBox="0 0 306 451" fill="none" xmlns="http://www.w3.org/2000/svg">
<path d="M40.1852 295.652C39.8905 295.98 39.5078 295.974 39.217 295.724C39.1039 295.627 39 295.506 38.9307 295.35C37.8697 293.116 36.8595 290.861 35.9 288.586C35.6318 287.936 35.753 287.105 36.1836 286.7C36.6143 286.295 37.1655 286.478 37.4337 287.128C38.354 289.337 39.348 291.578 40.3858 293.759C40.6725 294.36 40.5836 295.22 40.1852 295.652ZM106.936 109.039C107.404 108.763 107.624 107.952 107.432 107.27C107.249 106.565 106.711 106.232 106.26 106.522C104.576 107.529 102.924 108.563 101.304 109.624C100.853 109.914 100.632 110.725 100.825 111.407C100.906 111.702 101.04 111.914 101.201 112.053C101.443 112.261 101.734 112.284 102.006 112.13C103.616 111.093 105.268 110.059 106.927 109.063L106.936 109.039ZM34.7741 280.231C33.9343 277.864 33.1545 275.453 32.4484 273.072C32.2401 272.377 31.7095 272.083 31.2579 272.373C30.7972 272.687 30.6022 273.488 30.7944 274.169C31.5143 276.626 32.3173 279.09 33.1802 281.508C33.2635 281.741 33.3905 281.915 33.5359 282.039C33.7944 282.261 34.1264 282.288 34.4097 282.047C34.8473 281.681 35.0261 280.867 34.7833 280.206L34.7741 280.231ZM87.9061 120.482C87.6886 119.811 87.1234 119.552 86.695 119.894C85.0688 121.143 83.4842 122.396 81.9318 123.677C81.4942 124.044 81.3315 124.872 81.5743 125.532C81.6576 125.765 81.7846 125.938 81.93 126.063C82.1885 126.285 82.5206 126.312 82.8038 126.071C84.347 124.815 85.9156 123.548 87.5164 122.309C87.961 121.981 88.149 121.142 87.9061 120.482ZM28.9698 258.084C28.8375 257.357 28.3459 256.903 27.8551 257.127C27.3735 257.326 27.0724 258.068 27.2208 258.808C27.6689 261.419 28.2 264.037 28.8072 266.623C28.879 266.943 29.0361 267.207 29.2138 267.359C29.44 267.554 29.7052 267.588 29.9678 267.458C30.4425 267.22 30.679 266.423 30.5214 265.707C29.9281 263.197 29.4201 260.632 28.986 258.098L28.9698 258.084ZM126.48 95.5523C124.752 96.3918 123.065 97.2347 121.378 98.0776C120.904 98.3154 120.651 99.0986 120.809 99.8147C120.88 100.135 121.038 100.398 121.215 100.551C121.425 100.731 121.707 100.779 121.944 100.66C123.614 99.8036 125.301 98.9607 127.004 98.1317C127.478 97.8939 127.747 97.1245 127.59 96.4084C127.432 95.6923 126.922 95.2868 126.447 95.5246L126.48 95.5523ZM54.6462 317.358C53.3114 315.567 52.0204 313.717 50.7709 311.87C50.4244 311.314 49.832 311.354 49.4891 311.866C49.137 312.403 49.1472 313.283 49.5121 313.79C50.7686 315.675 52.1011 317.529 53.4428 319.358C53.4913 319.4 53.5467 319.479 53.5952 319.521C53.9506 319.826 54.4369 319.727 54.7199 319.261C55.0559 318.71 55.0202 317.841 54.6554 317.334L54.6462 317.358ZM117.465 101.591C117.299 100.899 116.779 100.518 116.305 100.756C114.607 101.686 112.925 102.629 111.268 103.563C110.801 103.839 110.573 104.611 110.731 105.327C110.812 105.623 110.953 105.873 111.131 106.025C111.357 106.22 111.638 106.268 111.91 106.114C113.55 105.167 115.223 104.247 116.921 103.317C117.38 103.066 117.632 102.282 117.475 101.566L117.465 101.591ZM148.193 87.5417C148.06 86.8152 147.569 86.3609 147.087 86.5604C145.331 87.247 143.617 87.9369 141.902 88.6268C141.421 88.8263 141.136 89.5819 141.268 90.3085C141.321 90.677 141.495 90.9548 141.688 91.1212C141.882 91.2876 142.138 91.3461 142.366 91.2515C144.065 90.5478 145.779 89.8579 147.526 89.1957C148.008 88.9961 148.309 88.2544 148.176 87.5279L148.193 87.5417ZM47.0959 306.134C45.8854 304.127 44.7256 302.099 43.6235 300.088C43.3115 299.497 42.7397 299.426 42.3483 299.897C41.9569 300.367 41.9095 301.23 42.2215 301.82C43.3306 303.869 44.5135 305.95 45.7564 307.984C45.8188 308.103 45.8995 308.172 45.9803 308.241C46.3196 308.532 46.746 308.479 47.036 308.051C47.4043 307.528 47.4263 306.676 47.0959 306.134ZM132.133 95.7595C133.817 94.9792 135.518 94.2128 137.251 93.4742C137.732 93.2746 138.001 92.5052 137.885 91.7925C137.753 91.0659 137.243 90.6604 136.77 90.8356C135.028 91.5986 133.312 92.3511 131.627 93.1313C131.153 93.3691 130.877 94.1003 131.025 94.8408C131.088 95.1849 131.245 95.4488 131.439 95.6153C131.649 95.7956 131.905 95.854 132.142 95.7351L132.133 95.7595ZM34.5383 189.625C34.9744 189.999 35.5068 189.779 35.7711 189.134C36.6352 186.843 37.5893 184.597 38.5757 182.379C38.8562 181.749 38.7446 180.911 38.3268 180.488C37.9159 180.103 37.3535 180.233 37.073 180.863C36.0521 183.116 35.0866 185.449 34.1879 187.775C33.9397 188.433 34.0767 189.261 34.5129 189.635L34.5383 189.625ZM31.1819 203.456C31.8015 201.02 32.5132 198.566 33.2896 196.167C33.5055 195.481 33.3178 194.675 32.8632 194.349C32.4087 194.023 31.8741 194.307 31.6582 194.992C30.8635 197.44 30.1403 199.981 29.4931 202.49C29.3371 203.131 29.4948 203.847 29.8825 204.18C29.9148 204.207 29.9633 204.249 29.9956 204.277C30.4685 204.554 30.9892 204.194 31.1635 203.505L31.1819 203.456ZM40.4288 176.162C40.4288 176.162 40.5096 176.231 40.5419 176.259C40.9296 176.592 41.4343 176.444 41.7034 175.901C42.7592 173.839 43.891 171.746 45.062 169.718C45.3818 169.154 45.3462 168.284 44.9721 167.802C44.5981 167.319 44.0217 167.373 43.702 167.937C42.5125 170.014 41.3554 172.118 40.2812 174.228C39.9684 174.831 40.0547 175.679 40.438 176.138L40.4288 176.162ZM47.3675 163.889C47.3675 163.889 47.4783 164.049 47.5429 164.104C47.8984 164.41 48.3432 164.307 48.6332 163.879C49.8321 162.004 51.1232 160.112 52.4283 158.296C52.7965 157.774 52.8185 156.921 52.472 156.366C52.1255 155.81 51.5607 155.777 51.1924 156.3C49.869 158.164 48.5687 160.081 47.3352 161.99C46.9831 162.527 46.9934 163.407 47.3583 163.914L47.3675 163.889ZM91.466 118.698C91.7083 118.906 92.0312 118.957 92.3053 118.741C93.8855 117.613 95.4911 116.475 97.1381 115.34C97.5989 115.026 97.7939 114.225 97.5856 113.53C97.3772 112.835 96.8466 112.541 96.3859 112.855C94.7226 113.976 93.1171 115.115 91.5184 116.291C91.0739 116.619 90.8789 117.42 91.0872 118.115C91.1613 118.372 91.2953 118.584 91.4568 118.723L91.466 118.698ZM27.238 242.433C27.1979 241.689 26.7684 241.127 26.2589 241.173C25.7656 241.234 25.3929 241.882 25.4238 242.65C25.5608 245.349 25.7877 248.093 26.0837 250.767C26.135 251.198 26.306 251.538 26.5322 251.732C26.7099 251.885 26.9243 251.94 27.1341 251.894C27.6296 251.771 27.9631 251.057 27.8723 250.334C27.574 247.723 27.361 245.055 27.2288 242.457L27.238 242.433ZM63.5199 142.781C63.6054 142.951 63.6931 143.059 63.8062 143.156C64.1131 143.419 64.4889 143.387 64.7744 143.084C66.1859 141.553 67.6388 140.026 69.1333 138.501C69.5477 138.083 69.6528 137.237 69.3754 136.612C69.098 135.987 68.5375 135.828 68.123 136.247C66.6032 137.781 65.125 139.319 63.7043 140.875C63.306 141.307 63.2171 142.166 63.5037 142.767L63.5199 142.781ZM29.4895 211.005C29.6316 210.288 29.3679 209.513 28.8835 209.323C28.4083 209.109 27.9108 209.521 27.7687 210.238C27.2508 212.858 26.8137 215.548 26.4618 218.182C26.3911 218.766 26.5785 219.347 26.9016 219.624C26.9824 219.693 27.0632 219.763 27.1623 219.783C27.6397 219.935 28.1233 219.447 28.2239 218.727C28.5735 216.155 28.9992 213.552 29.4895 211.005ZM60.6833 145.992C60.3714 145.402 59.8087 145.306 59.4265 145.752C57.9923 147.457 56.5995 149.165 55.2482 150.877C54.873 151.361 54.8256 152.224 55.1467 152.79C55.2091 152.908 55.2969 153.016 55.3938 153.099C55.7169 153.376 56.1342 153.347 56.4311 152.957C57.757 151.256 59.1245 149.558 60.5496 147.878C60.941 147.407 61.0045 146.558 60.7087 145.982L60.6833 145.992ZM27.4033 226.572C27.4555 225.81 27.1042 225.154 26.5992 225.075C26.0942 224.997 25.6591 225.526 25.607 226.288C25.4189 228.998 25.3046 231.74 25.2733 234.487C25.2717 235.002 25.4474 235.443 25.7382 235.693C25.8674 235.804 26.0151 235.866 26.1649 235.866C26.6722 235.882 27.068 235.286 27.0786 234.521C27.1146 231.874 27.2175 229.22 27.3941 226.597L27.4033 226.572ZM78.5089 128.16C78.266 127.499 77.7078 127.278 77.261 127.669C75.688 129.061 74.1565 130.457 72.6504 131.842C72.2197 132.246 72.0985 133.078 72.3668 133.728C72.4431 133.922 72.5539 134.082 72.6832 134.193C72.9578 134.428 73.3152 134.445 73.6077 134.18C75.0977 132.781 76.62 131.41 78.1676 130.028C78.6052 129.662 78.7517 128.82 78.4835 128.17L78.5089 128.16ZM183.796 380.412C182.007 380.392 180.237 380.324 178.466 380.256C177.959 380.24 177.547 380.822 177.536 381.587C177.534 382.102 177.717 382.582 177.992 382.817C178.121 382.928 178.268 382.99 178.418 382.99C180.189 383.058 181.985 383.116 183.79 383.149C184.281 383.151 184.703 382.545 184.704 381.804C184.705 381.063 184.304 380.428 183.812 380.426L183.796 380.412ZM162.482 378.86C160.693 378.614 158.929 378.358 157.174 378.078C156.669 377.999 156.234 378.529 156.182 379.291C156.146 379.841 156.335 380.358 156.642 380.622C156.739 380.705 156.861 380.778 156.986 380.788C158.757 381.082 160.546 381.328 162.336 381.573C162.825 381.638 163.269 381.084 163.312 380.346C163.355 379.609 162.987 378.938 162.498 378.874L162.482 378.86ZM173.133 379.937C171.339 379.816 169.563 379.647 167.813 379.468C167.315 379.427 166.887 379.996 166.844 380.733C166.817 381.258 167.016 381.752 167.307 382.001C167.42 382.098 167.551 382.147 167.692 382.171C169.468 382.34 171.243 382.509 173.053 382.643C173.551 382.683 173.963 382.101 173.99 381.35C174.017 380.599 173.64 379.953 173.133 379.937ZM130.863 371.687C129.11 371.118 127.375 370.501 125.666 369.872C125.182 369.682 124.691 370.132 124.582 370.877C124.485 371.472 124.68 372.09 125.019 372.382C125.084 372.437 125.164 372.506 125.247 372.513C126.973 373.155 128.716 373.749 130.485 374.332C130.979 374.498 131.453 374.034 131.563 373.289C131.673 372.544 131.365 371.829 130.872 371.663L130.863 371.687ZM151.879 377.146C150.101 376.814 148.342 376.433 146.592 376.027C146.096 375.924 145.628 376.426 145.56 377.174C145.498 377.734 145.695 378.29 146.002 378.554C146.099 378.637 146.205 378.696 146.32 378.73C148.071 379.136 149.856 379.507 151.634 379.839C152.13 379.942 152.59 379.402 152.633 378.664C152.701 377.916 152.343 377.222 151.854 377.157L151.879 377.146ZM141.333 374.772C139.56 374.314 137.821 373.821 136.082 373.329C135.595 373.201 135.121 373.665 135.011 374.41C134.941 374.994 135.128 375.575 135.451 375.852C135.532 375.922 135.613 375.991 135.737 376.001C137.492 376.507 139.247 377.014 141.021 377.472C141.507 377.599 141.975 377.097 142.059 376.363C142.144 375.629 141.811 374.923 141.324 374.796L141.333 374.772ZM194.473 380.285C192.672 380.353 190.906 380.385 189.141 380.418C188.649 380.416 188.244 381.036 188.243 381.777C188.241 382.292 188.426 382.709 188.701 382.944C188.83 383.055 188.994 383.131 189.153 383.107C190.935 383.088 192.726 383.045 194.527 382.977C195.027 382.955 195.416 382.321 195.418 381.58C195.403 380.825 194.982 380.239 194.491 380.237L194.473 380.285ZM215.778 378.345C213.996 378.59 212.224 378.811 210.451 379.031C209.958 379.092 209.585 379.74 209.616 380.508C209.633 380.974 209.827 381.367 210.069 381.575C210.214 381.7 210.404 381.765 210.579 381.754C212.351 381.534 214.14 381.327 215.931 381.058C216.425 380.997 216.79 380.311 216.75 379.567C216.71 378.823 216.255 378.271 215.762 378.331L215.778 378.345ZM227.395 377.767C227.33 377.034 226.875 376.482 226.388 376.581C224.611 376.926 222.853 377.223 221.094 377.52C220.591 377.605 220.235 378.267 220.291 379.025C220.333 379.481 220.495 379.845 220.737 380.053C220.899 380.192 221.088 380.258 221.288 380.236C223.047 379.939 224.831 379.632 226.608 379.286C227.095 379.187 227.46 378.501 227.395 377.767ZM205.128 379.592C203.332 379.76 201.571 379.894 199.794 380.013C199.294 380.036 198.905 380.67 198.936 381.438C198.943 381.929 199.128 382.346 199.386 382.567C199.532 382.692 199.696 382.768 199.871 382.757C201.648 382.638 203.435 382.494 205.231 382.325C205.74 382.279 206.113 381.631 206.073 380.887C206.033 380.142 205.612 379.556 205.119 379.616L205.128 379.592ZM71.6679 336.584C70.1537 335.155 68.6741 333.692 67.2129 332.179C66.7974 331.693 66.2397 331.924 65.9684 332.53C65.6879 333.161 65.7995 333.999 66.2012 334.408C67.6624 335.92 69.1743 337.412 70.7046 338.855L70.7369 338.882C71.1569 339.243 71.6801 339.047 71.9514 338.441C72.2157 337.797 72.0879 336.945 71.6771 336.56L71.6679 336.584ZM178.855 78.8249C179.35 78.7018 179.668 77.974 179.586 77.2264C179.495 76.5032 179.022 76.0002 178.526 76.1233C176.752 76.6325 175.002 77.1312 173.269 77.6437C172.781 77.8051 172.456 78.4946 172.554 79.2561C172.615 79.6628 172.77 79.9894 172.996 80.1835C173.173 80.3361 173.404 80.405 173.623 80.3349C175.356 79.8223 177.105 79.3236 178.88 78.8144L178.855 78.8249ZM168.001 79.2511C166.233 79.7986 164.482 80.3599 162.762 80.9489C162.274 81.1103 161.957 81.8381 162.064 82.5752C162.124 82.9819 162.288 83.2841 162.498 83.4644C162.692 83.6308 162.906 83.6859 163.141 83.6296C164.861 83.0405 166.603 82.5036 168.371 81.9562C168.859 81.7948 169.167 81.0914 169.07 80.3299C168.963 79.5929 168.48 79.1142 167.992 79.2755L168.001 79.2511ZM120.502 367.859C118.779 367.154 117.065 366.424 115.376 365.685C114.901 365.47 114.404 365.882 114.261 366.599C114.14 367.205 114.316 367.872 114.671 368.177C114.736 368.233 114.785 368.274 114.858 368.305C116.563 369.059 118.293 369.802 120.032 370.521C120.517 370.711 121.014 370.299 121.14 369.568C121.266 368.837 120.977 368.073 120.509 367.897L120.502 367.859ZM80.8719 344.614C79.658 343.637 78.4695 342.649 77.3063 341.65L76.2239 340.721C75.8568 340.277 75.2393 340.553 74.9911 341.211C74.7429 341.87 74.8799 342.697 75.3161 343.071L76.4146 344.015C77.594 345.027 78.7895 346.053 80.0287 347.02C80.4649 347.395 81.0156 347.125 81.2476 346.453C81.4958 345.795 81.3243 345.003 80.8719 344.614ZM62.9006 327.509C61.46 325.885 60.0701 324.241 58.7055 322.585C58.3223 322.127 57.746 322.181 57.4332 322.783C57.1042 323.372 57.1651 324.231 57.5646 324.703C58.9361 326.397 60.3583 328.069 61.8151 329.707C61.8474 329.735 61.8797 329.762 61.912 329.79C62.2997 330.123 62.8044 329.976 63.0827 329.408C63.3794 328.791 63.2931 327.943 62.9006 327.509ZM157.538 82.7232C155.784 83.3471 154.03 83.971 152.318 84.5983C151.837 84.7979 151.545 85.5152 151.652 86.2523C151.721 86.6347 151.869 86.923 152.079 87.1033C152.273 87.2697 152.504 87.3386 152.732 87.2441C154.444 86.6168 156.182 85.979 157.926 85.3795C158.415 85.2181 158.716 84.4765 158.609 83.7394C158.502 83.0023 158.01 82.548 157.522 82.7093L157.538 82.7232ZM100.252 357.928C98.5885 356.952 96.9343 355.951 95.3054 354.94C94.8416 354.639 94.314 354.96 94.1304 355.674C93.9491 356.324 94.1229 357.054 94.5106 357.387C94.5429 357.415 94.5752 357.443 94.6075 357.471C96.2434 358.52 97.8976 359.521 99.6026 360.5C100.076 360.777 100.596 360.418 100.771 359.728C100.954 359.015 100.732 358.243 100.259 357.966L100.252 357.928ZM110.292 363.288C108.599 362.448 106.906 361.607 105.24 360.693C104.774 360.455 104.253 360.814 104.095 361.517C103.939 362.158 104.131 362.839 104.503 363.158C104.551 363.2 104.6 363.241 104.648 363.283C106.323 364.172 108.023 365.051 109.742 365.881C110.208 366.12 110.721 365.722 110.889 364.994C111.047 364.291 110.783 363.517 110.317 363.278L110.292 363.288ZM190.133 74.4393C190.051 73.6918 189.578 73.1887 189.098 73.3257C187.326 73.7723 185.554 74.2188 183.814 74.6932C183.318 74.8163 182.985 75.5302 183.082 76.2917C183.134 76.7228 183.305 77.0632 183.531 77.2574C183.708 77.4099 183.923 77.465 184.133 77.4192C185.873 76.9449 187.62 76.5088 189.392 76.0622C189.888 75.9391 190.221 75.2252 190.13 74.502L190.133 74.4393ZM90.4092 351.705C88.7755 350.593 87.1764 349.446 85.5957 348.25C85.1411 347.924 84.6066 348.208 84.3837 348.855C84.177 349.517 84.3324 350.295 84.7363 350.642L84.7848 350.684C86.3747 351.855 88.0061 353.03 89.6559 354.155C90.1105 354.481 90.638 354.16 90.8539 353.474C91.0698 352.788 90.8476 352.017 90.4022 351.666L90.4092 351.705Z" fill="#C72128"/>
<path d="M227.674 68.9171C232.376 67.7912 238.005 65.1707 237.835 63.6373C237.665 62.1038 231.783 62.2173 227.072 63.3676C226.644 63.4836 226.224 63.5751 225.821 63.6806C225.311 63.049 224.241 61.7441 222.877 60.0887C222.893 60.1026 222.925 60.1303 222.942 60.1442L224.209 59.8451C224.368 59.8203 224.469 59.5522 224.421 59.2845L224.22 57.4347C224.197 57.1565 224.054 56.9691 223.885 57.0182L222.618 57.3173C222.618 57.3173 222.498 57.4081 222.445 57.4917L220.968 57.8366C219.811 56.4242 218.55 54.8903 217.306 53.3702L218.548 53.0816C218.707 53.0568 218.808 52.7887 218.759 52.521L218.559 50.6712C218.536 50.393 218.392 50.2056 218.224 50.2547L216.956 50.5538C216.956 50.5538 216.837 50.6446 216.784 50.7282L215.357 51.0521C212.189 47.2035 209.523 44.0109 209.407 43.9764C209.119 43.8902 207.268 44.4309 207.268 44.4309C206.823 44.533 206.485 44.694 206.482 44.7566C206.496 44.833 206.99 44.7726 207.409 44.681L212.49 53.7208C212.144 53.8435 211.905 54.025 211.916 54.1641C211.935 54.3414 212.309 54.3717 212.737 54.2558L212.788 54.2347L213.781 56.0233C213.461 56.1355 213.222 56.317 213.233 56.4561C213.252 56.6334 213.625 56.6637 214.054 56.5478L214.971 58.1417L215.381 59.4936C214.994 59.6129 214.687 59.8016 214.699 59.9407C214.718 60.118 215.091 60.1483 215.52 60.0324L215.536 60.0462L216.358 62.6874C215.971 62.8067 215.664 62.9954 215.692 63.1483C215.711 63.3257 216.084 63.356 216.513 63.24L217.258 65.6866C214.108 66.4987 212.863 66.8499 210.528 67.4267C208.177 67.9897 205.935 68.7749 204.066 69.5905C202.325 67.5153 198.92 63.3334 198.92 63.3334L197.583 63.4762L199.868 71.7619C199.467 72.0308 199.152 72.2439 198.944 72.4531C197.983 72.7897 197.391 73.0556 197.403 73.1947C197.415 73.3338 198.014 73.3322 198.968 73.1835C199.215 73.2663 199.589 73.2966 200.061 73.3474L199.581 82.3886L200.888 81.9294C200.888 81.9294 203.431 75.9816 204.617 73.2898C206.503 73.1663 208.674 72.9656 210.975 72.6497C213.888 71.9566 215.179 71.7096 217.864 71.1109L217.653 73.7688C217.199 73.8953 216.867 74.0945 216.886 74.2718C216.898 74.4109 217.22 74.4622 217.631 74.395L217.401 77.3277L217.385 77.3138C216.931 77.4403 216.59 77.6638 216.618 77.8168C216.63 77.9559 216.969 78.021 217.363 77.94L217.261 79.4011L216.733 81.3677C216.288 81.4698 215.947 81.6933 215.966 81.8707C215.978 82.0098 216.234 82.0682 216.577 82.0081L215.992 84.1836L215.959 84.1558C215.505 84.2823 215.164 84.5059 215.183 84.6832C215.195 84.8223 215.476 84.8702 215.82 84.8101L212.84 95.7711C212.428 95.9009 211.939 96.0623 211.937 96.1249C211.951 96.2014 212.301 96.1795 212.746 96.0774C212.746 96.0774 214.631 95.7279 214.864 95.5082C214.959 95.4279 216.835 91.1342 219.065 86.0151L220.492 85.6912C220.492 85.6912 220.621 85.8022 220.688 85.795L221.955 85.4959C222.114 85.4711 222.216 85.203 222.167 84.9354L221.966 83.0855C221.943 82.8073 221.8 82.6199 221.631 82.669L220.389 82.9577C221.26 80.931 222.132 78.9043 222.957 76.9995L224.435 76.6545C224.435 76.6545 224.564 76.7655 224.631 76.7584L225.898 76.4592C226.057 76.4345 226.159 76.1664 226.11 75.8987L225.909 74.0488C225.886 73.7706 225.743 73.5832 225.575 73.6324L224.307 73.9315C224.307 73.9315 224.288 73.9802 224.238 74.0012C225.19 71.8178 225.925 70.0941 226.289 69.2444C226.692 69.139 227.111 69.0474 227.556 68.9453L227.674 68.9171Z" fill="#C72128"/>
</svg>
