<svg width="48" height="48" viewBox="0 0 48 48" fill="none" xmlns="http://www.w3.org/2000/svg">
<g clip-path="url(#clip0_831_2861)">
<mask id="mask0_831_2861" style="mask-type:luminance" maskUnits="userSpaceOnUse" x="-3" y="-3" width="55" height="55">
<path d="M-3 -3.00021H51.8567V51.8564H-3V-3.00021Z" fill="white"/>
</mask>
<g mask="url(#mask0_831_2861)">
<path d="M9.0086 33.6657H19.3594C19.4425 33.6914 19.5282 33.7094 19.6157 33.7094C19.7014 33.7094 19.7871 33.6923 19.8702 33.6657H27.7824L22.7725 42.3442C16.9234 41.8068 11.8903 38.4562 9.0086 33.6657ZM8.71032 15.6796L13.8951 24.6606C13.9303 24.8149 14.0143 24.9503 14.1291 25.0661L18.1045 31.9514H8.09833C7.03719 29.6586 6.42863 27.1155 6.42863 24.4275C6.42863 21.2527 7.26176 18.2724 8.71032 15.6796ZM24.1456 6.44222L18.9599 15.4224C18.8442 15.5296 18.7697 15.6701 18.7268 15.827L14.7506 22.7132L9.74831 14.0476C12.96 9.51848 18.204 6.53565 24.1456 6.44222ZM39.8475 15.1893H29.4933C29.3416 15.143 29.1821 15.1481 29.0244 15.1893H21.0745L26.0845 6.51165C31.9335 7.04821 36.9666 10.3988 39.8475 15.1893ZM40.1466 33.1746L34.9609 24.1935C34.9258 24.0409 34.8418 23.9055 34.7278 23.7906L30.7524 16.9036H40.7586C41.8197 19.1973 42.4283 21.7395 42.4283 24.4275C42.4283 27.6023 41.5943 30.5826 40.1466 33.1746ZM33.053 24.4275L28.7407 31.8974H20.1154L15.8031 24.4275L20.1154 16.9584H28.7407L33.053 24.4275ZM24.7113 42.4136L29.8961 33.4334C30.0118 33.3254 30.0881 33.1848 30.1301 33.0271L34.1055 26.1418L39.1086 34.8074C35.8969 39.3365 30.6521 42.3202 24.7113 42.4136ZM40.792 35.4108C40.8178 35.3791 40.8349 35.344 40.8563 35.3097C42.9306 32.1888 44.1426 28.4475 44.1426 24.4275C44.1426 21.3109 43.4123 18.3624 42.1189 15.7396C42.1086 15.7121 42.0923 15.6881 42.0795 15.6616C39.0332 9.55277 32.9098 5.23966 25.7519 4.76309C25.7262 4.7588 25.7022 4.7588 25.6773 4.75709C25.2633 4.73138 24.8476 4.71338 24.4285 4.71338C17.6202 4.71338 11.6083 8.18306 8.0649 13.4459C8.04004 13.4759 8.0229 13.5093 8.00233 13.5427C5.9272 16.6644 4.71436 20.4067 4.71436 24.4275C4.71436 27.544 5.44378 30.4926 6.73719 33.1154C6.74834 33.1437 6.76377 33.1668 6.77748 33.1943C9.82974 39.3142 15.9694 43.6316 23.1445 44.0953C23.1753 44.0987 23.2062 44.1073 23.2379 44.1073C23.2456 44.1073 23.2533 44.1047 23.261 44.1047C23.6476 44.127 24.0368 44.1416 24.4285 44.1416C31.2358 44.1416 37.2478 40.6728 40.792 35.4108Z" fill="#231F20"/>
<path d="M1.28585 13.1621C1.75898 13.1621 2.14298 12.7781 2.14298 12.305V4.71333C2.14298 3.29563 3.29669 2.14192 4.71439 2.14192H12.3755C12.8486 2.14192 13.2326 1.75792 13.2326 1.28479C13.2326 0.811647 12.8486 0.427651 12.3755 0.427651H4.71439C2.35127 0.427651 0.428711 2.35021 0.428711 4.71333V12.305C0.428711 12.7781 0.812707 13.1621 1.28585 13.1621Z" fill="#231F20"/>
<path d="M44.1427 0.427651H36.4816C36.0085 0.427651 35.6245 0.811647 35.6245 1.28479C35.6245 1.75792 36.0085 2.14192 36.4816 2.14192H44.1427C45.5604 2.14192 46.7141 3.29563 46.7141 4.71333V12.305C46.7141 12.7781 47.0973 13.1621 47.5713 13.1621C48.0453 13.1621 48.4284 12.7781 48.4284 12.305V4.71333C48.4284 2.35021 46.5058 0.427651 44.1427 0.427651Z" fill="#231F20"/>
<path d="M12.375 46.7135H4.7139C3.2962 46.7135 2.14249 45.5598 2.14249 44.1421V36.5504C2.14249 36.0773 1.75935 35.6933 1.28536 35.6933C0.812219 35.6933 0.428223 36.0773 0.428223 36.5504V44.1421C0.428223 46.5052 2.35163 48.4277 4.7139 48.4277H12.375C12.8481 48.4277 13.2321 48.0437 13.2321 47.5706C13.2321 47.0975 12.8481 46.7135 12.375 46.7135Z" fill="#231F20"/>
<path d="M47.5713 35.6933C47.0973 35.6933 46.7141 36.0773 46.7141 36.5504V44.1421C46.7141 45.5598 45.5604 46.7135 44.1427 46.7135H36.4816C36.0085 46.7135 35.6245 47.0975 35.6245 47.5706C35.6245 48.0437 36.0085 48.4277 36.4816 48.4277H44.1427C46.5058 48.4277 48.4284 46.5052 48.4284 44.1421V36.5504C48.4284 36.0773 48.0453 35.6933 47.5713 35.6933Z" fill="#231F20"/>
<path d="M24.4284 20.9716H24.4344V20.9767C24.4344 22.4013 25.5924 23.5601 27.017 23.5601C27.161 23.5601 27.3033 23.5438 27.4447 23.5207C27.4893 23.513 27.533 23.501 27.5775 23.4915C27.6332 23.4787 27.6907 23.471 27.7447 23.4547C27.8381 23.7684 27.8844 24.0941 27.8844 24.4284C27.8844 26.3338 26.3347 27.8844 24.4284 27.8844C22.5222 27.8844 20.9716 26.3338 20.9716 24.4284C20.9716 22.5221 22.5222 20.9716 24.4284 20.9716ZM27.017 20.1093C27.4952 20.1093 27.8844 20.4984 27.8844 20.9767C27.8844 21.2236 27.7798 21.4558 27.5775 21.6298C27.4233 21.7713 27.2295 21.8458 27.017 21.8458C26.5378 21.8458 26.1487 21.4558 26.1487 20.9767C26.1487 20.8533 26.1778 20.7256 26.2318 20.6064C26.375 20.3039 26.6827 20.1093 27.017 20.1093ZM24.4284 29.5986C27.2793 29.5986 29.5987 27.2792 29.5987 24.4284C29.5987 23.723 29.4487 23.0261 29.1684 22.3798C29.4401 21.9676 29.5987 21.485 29.5987 20.9767C29.5987 19.553 28.4407 18.395 27.017 18.395C26.2575 18.395 25.5461 18.7344 25.061 19.2967C24.8536 19.271 24.6427 19.2573 24.4284 19.2573C21.5767 19.2573 19.2573 21.5767 19.2573 24.4284C19.2573 27.2792 21.5767 29.5986 24.4284 29.5986Z" fill="#231F20"/>
</g>
</g>
<defs>
<clipPath id="clip0_831_2861">
<rect width="48" height="48" fill="white"/>
</clipPath>
</defs>
</svg>
