<svg width="48" height="48" viewBox="0 0 48 48" fill="none" xmlns="http://www.w3.org/2000/svg">
<g clip-path="url(#clip0_831_2858)">
<path d="M46.0408 2.93878H39.6735V0.979592C39.6735 0.438563 39.2349 0 38.6939 0H34.7755C34.2345 0 33.7959 0.438563 33.7959 0.979592V2.93878H26.9388V0.979592C26.9388 0.438563 26.5002 0 25.9592 0H22.0408C21.4998 0 21.0612 0.438563 21.0612 0.979592V2.93878H14.2041V0.979592C14.2041 0.438563 13.7655 0 13.2245 0H9.30612C8.76509 0 8.32653 0.438563 8.32653 0.979592V2.93878H1.95918C0.87889 2.93878 0 3.81767 0 4.89796V46.0408C0 47.1211 0.87889 48 1.95918 48H46.0408C47.1211 48 48 47.1211 48 46.0408V4.89796C48 3.81767 47.1211 2.93878 46.0408 2.93878ZM35.7551 1.95918H37.7143V8.81633H35.7551V1.95918ZM23.0204 1.95918H24.9796V8.81633H23.0204V1.95918ZM10.2857 1.95918H12.2449V8.81633H10.2857V1.95918ZM46.0408 46.0408H1.95918V15.6735H46.0408V46.0408ZM46.0408 13.7143H1.95918V4.89796H8.32653V9.79592C8.32653 10.3369 8.76509 10.7755 9.30612 10.7755H13.2245C13.7655 10.7755 14.2041 10.3369 14.2041 9.79592V4.89796H21.0612V9.79592C21.0612 10.3369 21.4998 10.7755 22.0408 10.7755H25.9592C26.5002 10.7755 26.9388 10.3369 26.9388 9.79592V4.89796H33.7959V9.79592C33.7959 10.3369 34.2345 10.7755 34.7755 10.7755H38.6939C39.2349 10.7755 39.6735 10.3369 39.6735 9.79592V4.89796H46.0408V13.7143Z" fill="black"/>
<path d="M4.89805 24.9793H10.7756C11.3166 24.9793 11.7552 24.5407 11.7552 23.9997V18.1222C11.7552 17.5811 11.3166 17.1426 10.7756 17.1426H4.89805C4.35702 17.1426 3.91846 17.5811 3.91846 18.1222V23.9997C3.91846 24.5407 4.35702 24.9793 4.89805 24.9793ZM5.87764 19.1018H9.79601V23.0201H5.87764V19.1018Z" fill="black"/>
<path d="M4.89805 44.5711H10.7756C11.3166 44.5711 11.7552 44.1326 11.7552 43.5916V41.6324H14.694V43.5916C14.694 44.1326 15.1325 44.5711 15.6736 44.5711H21.5511C22.0921 44.5711 22.5307 44.1326 22.5307 43.5916V37.714C22.5307 37.1731 22.0921 36.7344 21.5511 36.7344H15.6736C15.1325 36.7344 14.694 37.1731 14.694 37.714V39.6732H11.7552V37.714C11.7552 37.1731 11.3166 36.7344 10.7756 36.7344H8.81642V34.7752H10.7756C11.3166 34.7752 11.7552 34.3367 11.7552 33.7956V31.8365H14.694V33.7956C14.694 34.3367 15.1325 34.7752 15.6736 34.7752H21.5511C22.0921 34.7752 22.5307 34.3367 22.5307 33.7956V31.8365H25.4695V33.7956C25.4695 34.3367 25.908 34.7752 26.4491 34.7752H32.3266C32.8676 34.7752 33.3062 34.3367 33.3062 33.7956V31.8365H36.245V33.7956C36.245 34.3367 36.6836 34.7752 37.2246 34.7752H43.1021C43.6432 34.7752 44.0817 34.3367 44.0817 33.7956V27.9181C44.0817 27.3772 43.6432 26.9385 43.1021 26.9385H41.1429V24.9793H43.1021C43.6432 24.9793 44.0817 24.5407 44.0817 23.9997V18.1222C44.0817 17.5811 43.6432 17.1426 43.1021 17.1426H37.2246C36.6836 17.1426 36.245 17.5811 36.245 18.1222V20.0814H33.3062V18.1222C33.3062 17.5811 32.8676 17.1426 32.3266 17.1426H26.4491C25.908 17.1426 25.4695 17.5811 25.4695 18.1222V20.0814H22.5307V18.1222C22.5307 17.5811 22.0921 17.1426 21.5511 17.1426H15.6736C15.1325 17.1426 14.694 17.5811 14.694 18.1222V23.9997C14.694 24.5407 15.1325 24.9793 15.6736 24.9793H21.5511C22.0921 24.9793 22.5307 24.5407 22.5307 23.9997V22.0405H25.4695V23.9997C25.4695 24.5407 25.908 24.9793 26.4491 24.9793H32.3266C32.8676 24.9793 33.3062 24.5407 33.3062 23.9997V22.0405H36.245V23.9997C36.245 24.5407 36.6836 24.9793 37.2246 24.9793H39.1838V26.9385H37.2246C36.6836 26.9385 36.245 27.3772 36.245 27.9181V29.8773H33.3062V27.9181C33.3062 27.3772 32.8676 26.9385 32.3266 26.9385H26.4491C25.908 26.9385 25.4695 27.3772 25.4695 27.9181V29.8773H22.5307V27.9181C22.5307 27.3772 22.0921 26.9385 21.5511 26.9385H15.6736C15.1325 26.9385 14.694 27.3772 14.694 27.9181V29.8773H11.7552V27.9181C11.7552 27.3772 11.3166 26.9385 10.7756 26.9385H4.89805C4.35702 26.9385 3.91846 27.3772 3.91846 27.9181V33.7956C3.91846 34.3367 4.35702 34.7752 4.89805 34.7752H6.85723V36.7344H4.89805C4.35702 36.7344 3.91846 37.1731 3.91846 37.714V43.5916C3.91846 44.1326 4.35702 44.5711 4.89805 44.5711ZM16.6532 38.6936H20.5715V42.612H16.6532V38.6936ZM20.5715 23.0201H16.6532V19.1018H20.5715V23.0201ZM31.347 23.0201H27.4287V19.1018H31.347V23.0201ZM38.2042 23.0201V19.1018H42.1225V23.0201H38.2042ZM38.2042 28.8977H42.1225V32.816H38.2042V28.8977ZM27.4287 28.8977H31.347V32.816H27.4287V28.8977ZM16.6532 28.8977H20.5715V32.816H16.6532V28.8977ZM5.87764 32.816V28.8977H9.79601V32.816H5.87764ZM5.87764 38.6936H9.79601V42.612H5.87764V38.6936Z" fill="black"/>
<path d="M32.3264 36.7344H26.4488C25.9078 36.7344 25.4692 37.173 25.4692 37.714V43.5915C25.4692 44.1325 25.9078 44.5711 26.4488 44.5711H32.3264C32.8674 44.5711 33.306 44.1325 33.306 43.5915V37.714C33.306 37.173 32.8674 36.7344 32.3264 36.7344ZM31.3468 42.6119H27.4284V38.6936H31.3468V42.6119Z" fill="black"/>
<path d="M43.1023 36.7344H37.2247C36.6837 36.7344 36.2451 37.173 36.2451 37.714V43.5915C36.2451 44.1325 36.6837 44.5711 37.2247 44.5711H43.1023C43.6433 44.5711 44.0819 44.1325 44.0819 43.5915V37.714C44.0819 37.173 43.6433 36.7344 43.1023 36.7344ZM42.1227 42.6119H38.2043V38.6936H42.1227V42.6119Z" fill="black"/>
<path d="M19.592 20.082H17.6328V22.0412H19.592V20.082Z" fill="black"/>
<path d="M30.3674 20.082H28.4082V22.0412H30.3674V20.082Z" fill="black"/>
<path d="M41.1428 20.082H39.1836V22.0412H41.1428V20.082Z" fill="black"/>
<path d="M41.1428 29.8779H39.1836V31.8371H41.1428V29.8779Z" fill="black"/>
<path d="M30.3674 29.8779H28.4082V31.8371H30.3674V29.8779Z" fill="black"/>
<path d="M19.592 29.8779H17.6328V31.8371H19.592V29.8779Z" fill="black"/>
<path d="M8.81612 29.8779H6.85693V31.8371H8.81612V29.8779Z" fill="black"/>
<path d="M8.81612 39.6738H6.85693V41.633H8.81612V39.6738Z" fill="black"/>
<path d="M19.592 39.6738H17.6328V41.633H19.592V39.6738Z" fill="black"/>
</g>
<defs>
<clipPath id="clip0_831_2858">
<rect width="48" height="48" fill="white"/>
</clipPath>
</defs>
</svg>
