<svg width="48" height="48" viewBox="0 0 48 48" fill="none" xmlns="http://www.w3.org/2000/svg">
<g clip-path="url(#clip0_831_2863)">
<path d="M32.7189 0H14.4789C13.1389 0 11.8537 0.532329 10.9062 1.47988C9.9586 2.42743 9.42627 3.71259 9.42627 5.05263V21.1874C9.42627 22.5274 9.9586 23.8126 10.9062 24.7601C11.8537 25.7077 13.1389 26.24 14.4789 26.24H16.3568L22.9589 34.0126C23.0702 34.1426 23.2185 34.2357 23.3839 34.2793C23.5494 34.3229 23.7243 34.3151 23.8852 34.2568C24.0485 34.1988 24.1897 34.0915 24.2893 33.9497C24.3889 33.8078 24.4419 33.6386 24.441 33.4653V26.24H32.7189C34.0589 26.24 35.3441 25.7077 36.2917 24.7601C37.2392 23.8126 37.7715 22.5274 37.7715 21.1874V5.05263C37.7715 3.71259 37.2392 2.42743 36.2917 1.47988C35.3441 0.532329 34.0589 0 32.7189 0ZM36.0873 21.1874C36.0873 22.0807 35.7324 22.9375 35.1007 23.5692C34.469 24.2009 33.6123 24.5558 32.7189 24.5558H23.5989C23.3756 24.5558 23.1614 24.6445 23.0034 24.8024C22.8455 24.9604 22.7568 25.1746 22.7568 25.3979V31.1747L17.3842 24.8505C17.3047 24.7586 17.2065 24.6847 17.0961 24.6338C16.9857 24.583 16.8657 24.5564 16.7442 24.5558H14.4789C13.5855 24.5558 12.7288 24.2009 12.0971 23.5692C11.4654 22.9375 11.1105 22.0807 11.1105 21.1874V5.05263C11.1105 4.15927 11.4654 3.3025 12.0971 2.6708C12.7288 2.0391 13.5855 1.68421 14.4789 1.68421H32.7189C33.6123 1.68421 34.469 2.0391 35.1007 2.6708C35.7324 3.3025 36.0873 4.15927 36.0873 5.05263V21.1874Z" fill="black"/>
<path d="M34.2601 6.1048C34.2601 6.32814 34.1714 6.54233 34.0134 6.70026C33.8555 6.85818 33.6413 6.94691 33.418 6.94691H13.7801C13.5568 6.94691 13.3426 6.85818 13.1846 6.70026C13.0267 6.54233 12.938 6.32814 12.938 6.1048C12.938 5.88146 13.0267 5.66727 13.1846 5.50934C13.3426 5.35142 13.5568 5.2627 13.7801 5.2627H33.418C33.6413 5.2627 33.8555 5.35142 34.0134 5.50934C34.1714 5.66727 34.2601 5.88146 34.2601 6.1048Z" fill="black"/>
<path d="M34.2601 9.61656C34.2601 9.8399 34.1714 10.0541 34.0134 10.212C33.8555 10.3699 33.6413 10.4587 33.418 10.4587H13.7801C13.5568 10.4587 13.3426 10.3699 13.1846 10.212C13.0267 10.0541 12.938 9.8399 12.938 9.61656C12.938 9.39322 13.0267 9.17903 13.1846 9.0211C13.3426 8.86318 13.5568 8.77446 13.7801 8.77446H33.418C33.5289 8.77333 33.6389 8.79434 33.7416 8.83626C33.8443 8.87819 33.9375 8.94017 34.016 9.01859C34.0944 9.09702 34.1564 9.1903 34.1983 9.29297C34.2402 9.39565 34.2612 9.50566 34.2601 9.61656Z" fill="black"/>
<path d="M34.2601 13.1204C34.2601 13.3438 34.1714 13.558 34.0134 13.7159C33.8555 13.8738 33.6413 13.9625 33.418 13.9625H13.7801C13.5568 13.9625 13.3426 13.8738 13.1846 13.7159C13.0267 13.558 12.938 13.3438 12.938 13.1204C12.938 12.8971 13.0267 12.6829 13.1846 12.525C13.3426 12.367 13.5568 12.2783 13.7801 12.2783H33.418C33.6413 12.2783 33.8555 12.367 34.0134 12.525C34.1714 12.6829 34.2601 12.8971 34.2601 13.1204Z" fill="black"/>
<path d="M34.26 16.6312C34.26 16.8546 34.1713 17.0687 34.0134 17.2267C33.8554 17.3846 33.6412 17.4733 33.4179 17.4733H20.7947C20.5714 17.4733 20.3572 17.3846 20.1993 17.2267C20.0414 17.0687 19.9526 16.8546 19.9526 16.6312C19.9526 16.4079 20.0414 16.1937 20.1993 16.0358C20.3572 15.8778 20.5714 15.7891 20.7947 15.7891H33.4179C33.5288 15.788 33.6388 15.809 33.7415 15.8509C33.8442 15.8928 33.9374 15.9548 34.0159 16.0332C34.0943 16.1117 34.1563 16.2049 34.1982 16.3076C34.2401 16.4103 34.2611 16.5203 34.26 16.6312Z" fill="black"/>
<path d="M34.26 20.1341C34.26 20.3574 34.1713 20.5716 34.0134 20.7296C33.8554 20.8875 33.6412 20.9762 33.4179 20.9762H20.7947C20.5714 20.9762 20.3572 20.8875 20.1993 20.7296C20.0414 20.5716 19.9526 20.3574 19.9526 20.1341C19.9526 19.9108 20.0414 19.6966 20.1993 19.5386C20.3572 19.3807 20.5714 19.292 20.7947 19.292H33.4179C33.6412 19.292 33.8554 19.3807 34.0134 19.5386C34.1713 19.6966 34.26 19.9108 34.26 20.1341Z" fill="black"/>
<path d="M12.3567 36.2529C12.3006 36.0847 12.1934 35.9382 12.0499 35.834C11.9065 35.7298 11.734 35.6731 11.5567 35.6718H8.0788L7.00091 32.3624C6.94553 32.1939 6.83838 32.0472 6.69473 31.9432C6.55107 31.8392 6.37825 31.7832 6.20091 31.7832C6.02356 31.7832 5.85074 31.8392 5.70709 31.9432C5.56344 32.0472 5.45628 32.1939 5.40091 32.3624L4.32301 35.6718H0.845119C0.666906 35.6712 0.493086 35.7271 0.348671 35.8315C0.204256 35.936 0.0966939 36.0835 0.0414623 36.253C-0.0137693 36.4224 -0.013822 36.605 0.0413117 36.7745C0.0964454 36.9439 0.203922 37.0915 0.348277 37.196L3.16091 39.2424L2.09143 42.5434C2.05023 42.6698 2.03952 42.8041 2.06019 42.9354C2.08086 43.0667 2.13231 43.1912 2.21034 43.2988C2.28837 43.4064 2.39076 43.494 2.50914 43.5545C2.62752 43.6149 2.75852 43.6465 2.89143 43.6466C3.06973 43.6466 3.24353 43.5907 3.38828 43.4866L6.20091 41.4403L9.01354 43.4866C9.15694 43.5903 9.32937 43.6461 9.50633 43.6463C9.6833 43.6464 9.85581 43.5908 9.99937 43.4873C10.1429 43.3838 10.2502 43.2378 10.3061 43.0698C10.3619 42.9019 10.3634 42.7207 10.3104 42.5518L9.23249 39.2424L12.0535 37.196C12.1961 37.09 12.3019 36.9421 12.3562 36.773C12.4106 36.6039 12.4108 36.4221 12.3567 36.2529ZM7.44722 39.175L7.91038 40.6066L6.69775 39.7224C6.55405 39.6157 6.37986 39.5581 6.20091 39.5581C6.02196 39.5581 5.84776 39.6157 5.70407 39.7224L4.49144 40.6066L4.95459 39.175C5.00932 39.0071 5.00946 38.8263 4.95499 38.6583C4.90053 38.4904 4.79426 38.344 4.65143 38.2403L3.4388 37.356H4.93775C5.11505 37.3548 5.28751 37.2981 5.43097 37.1939C5.57443 37.0897 5.6817 36.9432 5.73775 36.775L6.20091 35.3434L6.66407 36.775C6.71912 36.9438 6.82613 37.0909 6.96981 37.1953C7.11349 37.2997 7.28649 37.3559 7.46407 37.356H8.96301L7.75038 38.2403C7.60601 38.3427 7.49854 38.489 7.44392 38.6574C7.38931 38.8258 7.39047 39.0073 7.44722 39.175Z" fill="black"/>
<path d="M29.7546 40.5976C29.6996 40.4288 29.5926 40.2817 29.4489 40.1773C29.3052 40.073 29.1322 40.0167 28.9546 40.0166H25.4768L24.3989 36.7071C24.3435 36.5386 24.2363 36.3919 24.0927 36.2879C23.949 36.1839 23.7762 36.1279 23.5989 36.1279C23.4215 36.1279 23.2487 36.1839 23.105 36.2879C22.9614 36.3919 22.8542 36.5386 22.7989 36.7071L21.721 40.0166H18.2431C18.0649 40.0159 17.891 40.0718 17.7466 40.1763C17.6022 40.2807 17.4946 40.4282 17.4394 40.5977C17.3842 40.7671 17.3841 40.9497 17.4393 41.1192C17.4944 41.2887 17.6019 41.4363 17.7462 41.5408L20.5673 43.5871L19.4894 46.8966C19.4353 47.0658 19.4355 47.2476 19.4898 47.4167C19.5442 47.5858 19.65 47.7337 19.7925 47.8397C19.9378 47.9425 20.1114 47.9976 20.2894 47.9976C20.4673 47.9976 20.6409 47.9425 20.7862 47.8397L23.5989 45.7934L26.4115 47.8397C26.5563 47.9438 26.73 47.9997 26.9083 47.9997C27.0866 47.9997 27.2604 47.9438 27.4052 47.8397C27.5477 47.7337 27.6535 47.5858 27.7079 47.4167C27.7622 47.2476 27.7624 47.0658 27.7083 46.8966L26.6304 43.5871L29.4515 41.5408C29.5952 41.4358 29.702 41.2879 29.7564 41.1185C29.8109 40.949 29.8103 40.7667 29.7546 40.5976ZM24.8452 43.5281L25.3083 44.9513L24.0957 44.0671C23.9509 43.963 23.7771 43.9071 23.5989 43.9071C23.4206 43.9071 23.2468 43.963 23.102 44.0671L21.8894 44.9513L22.3525 43.5281C22.4092 43.3592 22.4104 43.1765 22.3559 43.0068C22.3013 42.8371 22.1939 42.6893 22.0494 42.585L20.8368 41.7008H22.3357C22.5133 41.7006 22.6863 41.6444 22.83 41.54C22.9736 41.4357 23.0807 41.2886 23.1357 41.1197L23.5989 39.6966L24.062 41.1197C24.1171 41.2886 24.2241 41.4357 24.3678 41.54C24.5114 41.6444 24.6844 41.7006 24.862 41.7008H26.361L25.1483 42.585C25.0038 42.6893 24.8964 42.8371 24.8419 43.0068C24.7873 43.1765 24.7885 43.3592 24.8452 43.5281Z" fill="black"/>
<path d="M47.1526 36.2529C47.0986 36.0834 46.9918 35.9357 46.8479 35.8311C46.704 35.7266 46.5305 35.6708 46.3526 35.6718H42.8747L41.7968 32.3624C41.7414 32.1939 41.6343 32.0472 41.4906 31.9432C41.347 31.8392 41.1742 31.7832 40.9968 31.7832C40.8195 31.7832 40.6466 31.8392 40.503 31.9432C40.3593 32.0472 40.2522 32.1939 40.1968 32.3624L39.1189 35.6718H35.641C35.4628 35.6712 35.289 35.7271 35.1446 35.8315C35.0002 35.936 34.8926 36.0835 34.8374 36.253C34.7821 36.4224 34.7821 36.605 34.8372 36.7745C34.8923 36.9439 34.9998 37.0915 35.1442 37.196L37.9652 39.2424L36.8873 42.5518C36.8343 42.7207 36.8358 42.9019 36.8916 43.0698C36.9475 43.2378 37.0548 43.3838 37.1983 43.4873C37.3419 43.5908 37.5144 43.6464 37.6914 43.6463C37.8683 43.6461 38.0408 43.5903 38.1842 43.4866L40.9968 41.4403L43.8094 43.4866C43.9542 43.5907 44.128 43.6466 44.3063 43.6466C44.485 43.6492 44.6596 43.593 44.8031 43.4866C44.9482 43.3827 45.056 43.2349 45.1106 43.0651C45.1652 42.8952 45.1637 42.7123 45.1063 42.5434L44.0368 39.2424L46.8494 37.196C46.9932 37.091 47.0999 36.9432 47.1544 36.7738C47.2088 36.6043 47.2082 36.422 47.1526 36.2529ZM42.2431 39.175L42.7063 40.6066L41.4936 39.7224C41.3495 39.6171 41.1753 39.561 40.9968 39.5624C40.8185 39.5623 40.6447 39.6183 40.5 39.7224L39.2873 40.6066L39.7505 39.175C39.8073 39.0073 39.8084 38.8258 39.7538 38.6574C39.6992 38.489 39.5917 38.3427 39.4473 38.2403L38.2347 37.356H39.7336C39.9112 37.3559 40.0842 37.2997 40.2279 37.1953C40.3716 37.0909 40.4786 36.9438 40.5337 36.775L40.9968 35.3434L41.46 36.775C41.516 36.9432 41.6233 37.0897 41.7667 37.1939C41.9102 37.2981 42.0827 37.3548 42.26 37.356H43.7589L42.5463 38.2403C42.4035 38.344 42.2972 38.4904 42.2427 38.6583C42.1883 38.8263 42.1884 39.0071 42.2431 39.175Z" fill="black"/>
</g>
<defs>
<clipPath id="clip0_831_2863">
<rect width="48" height="48" fill="white"/>
</clipPath>
</defs>
</svg>
