<svg width="48" height="48" viewBox="0 0 48 48" fill="none" xmlns="http://www.w3.org/2000/svg">
<g clip-path="url(#clip0_831_2859)">
<path d="M19.842 34.7135C19.842 34.7106 19.841 34.7086 19.84 34.7057C19.8811 34.7282 19.9046 34.739 19.842 34.7135ZM19.7695 34.642C19.7048 34.6303 19.7881 34.6753 19.842 34.7047C19.8263 34.6724 19.8028 34.6479 19.7695 34.642ZM25.2014 21.9267C25.2014 21.9267 25.2122 21.9384 25.2259 21.9521C25.2396 21.9267 25.2014 21.9267 25.2014 21.9267ZM32.7033 33.4293C32.8757 33.4528 33.1049 33.4351 33.2685 33.4293H33.3204C33.486 33.4293 33.629 33.3607 33.8896 33.2167L33.9102 33.2059C33.6946 33.1795 33.4821 33.1511 33.2685 33.1256C33.0579 33.0982 32.8463 33.0668 32.6357 33.0374C32.7846 33.153 32.8865 33.25 32.8443 33.2647C32.7287 33.3137 32.5152 33.4087 32.7033 33.4293ZM31.6531 22.825L31.6159 22.8064C31.5356 23.1492 31.4513 23.4882 31.369 23.8261C31.4268 23.8614 31.3857 23.8731 31.6247 23.8839C31.9676 23.9006 31.7295 23.9006 31.9803 23.9006C32.234 23.9006 32.2791 23.928 32.3242 23.8242C32.3683 23.7193 32.3849 23.8849 32.3849 23.5998C32.3849 23.3148 32.2527 23.1972 32.1606 23.1228C32.0695 23.0503 31.9215 22.9445 31.6531 22.825ZM30.171 28.2589L30.0946 28.5145L30.2102 28.494C30.2102 28.494 30.2386 28.5733 30.2846 28.687C30.3081 28.6252 30.3307 28.5772 30.3307 28.5772C30.3307 28.5772 30.3307 28.4959 30.2895 28.3333C30.2817 28.3069 30.2288 28.2804 30.171 28.2589ZM30.9223 25.6962H30.8871L30.8538 25.8314C30.7058 26.3839 30.5481 26.9423 30.3885 27.5036C30.5158 27.5095 30.6343 27.5193 30.6343 27.5193C30.6343 27.5193 30.7774 27.4585 30.8185 27.2753C30.8587 27.0912 30.9615 26.8874 30.9615 26.8874C30.9615 26.8874 30.9968 26.8952 31.0644 26.908C31.1055 26.8345 31.1506 26.7268 31.1506 26.6023C31.1506 26.3467 31.037 26.2918 31.037 26.1527C31.037 26.0097 31.0948 25.6727 31.0948 25.6727L30.9223 25.6962ZM34.5596 33.2833C34.447 33.5762 34.3226 33.8828 34.2452 34.0014C34.0796 34.261 33.629 34.8321 33.391 35.0437C33.3655 35.0691 33.3204 35.1054 33.2685 35.1465C32.909 35.4394 32.0822 36.0605 31.8951 36.2065C31.6825 36.372 30.6872 37.2253 30.5687 37.3222C30.4482 37.4163 30.2591 37.7239 30.2591 37.7239L30.0936 37.9629L30.1661 38.152C30.1661 38.152 30.0231 38.3165 29.976 38.485C29.9702 38.5085 29.9555 38.534 29.9378 38.5585C28.632 39.0934 27.2841 39.4411 25.9322 39.6077C25.6697 40.1543 25.4032 40.6901 25.1289 41.2191C27.6916 41.0546 30.2591 40.313 32.6347 38.9425C35.0103 37.5711 36.9372 35.7186 38.3625 33.5811C37.7865 33.5566 37.2056 33.5194 36.6247 33.4753C35.936 33.4244 35.2473 33.3607 34.5596 33.2833ZM47.9431 30.4111C47.179 33.2637 38.8719 33.6056 28.3303 31.4994C24.8821 41.6815 20.4346 48.7034 17.583 47.9393C15.7864 47.4602 14.986 43.9758 15.1682 38.8279C15.229 38.8612 15.2907 38.8955 15.3514 38.9298C12.8181 37.4672 10.6189 35.3434 9.05055 32.625C7.67909 30.2494 6.93851 27.6809 6.77393 25.1173C7.27451 25.3788 7.78489 25.6306 8.30213 25.8794C10.1487 26.765 12.0854 27.5673 14.0485 28.2922H14.0446L14.0495 28.398L13.7644 28.8966L13.5019 29.0641L13.5734 29.1826L13.6214 29.4217H13.4794C13.4794 29.4217 13.4794 29.7538 13.4794 29.9409C13.4794 30.1309 13.8604 30.2044 13.8604 30.2044L13.7409 30.2769C13.7409 30.2769 13.7654 30.3974 13.884 30.5825C14.0025 30.7716 14.0975 30.9401 14.1465 31.1056C14.1925 31.2712 14.264 31.7463 14.264 31.7463C14.264 31.7463 14.5726 32.2674 14.7147 32.482C14.8577 32.6955 15.1418 32.9816 15.2613 33.2186C15.3798 33.4557 15.6414 33.3382 16.139 33.4557C16.6367 33.5733 16.8512 33.7398 16.8512 33.7398C16.8512 33.7398 17.1128 33.9563 17.2783 34.0484C17.4439 34.1454 17.6104 34.1454 18.062 34.1454C18.4911 34.1454 18.2109 34.1659 18.7389 34.2482L18.8212 34.261C19.454 34.356 18.9525 34.3119 19.5559 34.5823L19.5794 34.594C19.7254 34.6597 19.8047 34.6959 19.8459 34.7126C19.8919 34.8213 19.8713 35.028 19.888 35.1142C19.9115 35.2347 20.078 35.0936 20.1966 35.0936C20.2877 35.0936 20.3092 35.1622 20.4131 35.2278C20.4434 35.2484 20.4807 35.2651 20.5287 35.2807C20.7432 35.3522 20.7892 35.2092 20.7892 35.2092L21.0273 35.4953L21.2173 35.7578L21.0273 36.2065L20.8617 36.373C20.8617 36.373 20.8852 36.1594 20.8617 35.9939C20.8372 35.8264 20.6962 36.0644 20.6962 36.0644L20.5532 36.516L21.0753 37.0156L21.234 37.1577L21.5768 37.4662L21.5974 37.527L21.7894 38.0814L21.7659 38.2715L21.8844 38.5791C21.8844 38.5791 21.7336 38.6408 21.5974 38.6761C21.5455 38.6898 21.4965 38.6976 21.4583 38.6976C21.3897 38.6976 21.3045 38.7779 21.235 38.8651C21.1595 38.9582 21.1017 39.0542 21.1017 39.0542C21.1017 39.0542 21.1566 39.159 21.235 39.2697C21.2859 39.3393 21.3466 39.4108 21.4103 39.4558C21.4426 39.4784 21.473 39.498 21.5034 39.5175C21.5288 39.5215 21.5543 39.5273 21.5788 39.5322C21.5749 39.5411 21.569 39.5518 21.5631 39.5587L21.4926 39.6792C21.2888 40.0338 21.0273 40.4737 20.7285 40.936C18.9907 40.5981 17.3087 39.9956 15.7462 39.1473C15.7482 39.1492 15.7511 39.1502 15.7531 39.1541C15.8001 42.2654 16.382 44.2794 17.5193 44.5851C19.6803 45.164 23.1766 39.4167 26.0674 31.0126C24.8556 30.7383 23.6184 30.4336 22.3694 30.0966C9.14165 26.5612 -0.846468 20.9529 0.0567337 17.5821C0.537723 15.7845 4.0173 14.9851 9.16712 15.1673C9.10737 15.2692 9.05055 15.3711 8.99275 15.473C10.4583 12.8858 12.6075 10.6425 15.37 9.04966C18.1188 7.46171 21.1233 6.7221 24.0837 6.74169C23.9789 6.74169 23.8731 6.73876 23.7682 6.73973C26.184 2.18944 28.6193 -0.425147 30.4159 0.0568222C33.7877 0.960024 33.6496 12.4146 30.1073 25.6384C29.7703 26.8874 29.4167 28.1109 29.0483 29.2992C37.7718 30.9979 44.4988 30.846 45.0777 28.686C45.3824 27.5496 43.9267 26.0361 41.2543 24.4394C41.2543 24.4315 41.2543 24.4237 41.2543 24.4159C41.2083 26.1978 40.8919 27.962 40.3119 29.6401C39.7614 29.6666 39.253 29.6715 38.8435 29.6715C38.5094 29.6715 38.2479 29.6666 38.0931 29.6607C37.6484 29.6421 37.1968 29.6196 36.7471 29.5892C36.8265 29.311 36.895 29.1053 36.9127 28.9916C36.9332 28.8486 37.0146 28.6233 37.0146 28.6233L36.4856 28.5018L36.4248 28.155L36.1995 28.1178L35.9967 28.5038C35.9967 28.5038 35.8322 28.7477 35.6499 28.8496C35.4658 28.9515 35.2219 28.972 35.2219 28.972L35.2826 28.686C35.1807 28.6468 34.977 28.7252 34.977 28.7252L34.9564 28.4616C34.9564 28.4616 34.833 28.1972 34.7321 28.1746C34.6302 28.1541 34.4666 27.9297 34.4666 27.9297C34.4666 27.9297 34.4058 27.8504 34.3431 27.6858C34.3422 27.6809 34.3353 27.675 34.3255 27.6672L34.3559 27.53C34.3559 27.53 34.545 27.3135 34.7056 27.1264C34.8682 26.9374 34.9231 27.3135 35.0847 27.4507C35.2463 27.5839 35.1925 27.8014 35.1925 27.8014C35.1925 27.8014 35.3002 27.8553 35.4344 27.8553C35.5706 27.8553 35.6245 27.962 35.6245 27.962L35.8929 28.0698L36.1652 27.77C36.1652 27.77 36.2171 27.582 36.4043 27.582C36.5943 27.582 36.4307 27.8259 36.4307 27.962C36.4307 28.0963 36.5669 27.962 36.945 27.8004C37.3212 27.6388 37.1605 27.6652 37.5102 27.4752C37.8609 27.2871 37.6729 27.341 37.808 27.2332C37.9452 27.1264 38.051 27.0167 38.051 27.0167L38.3468 27.2038L38.6711 27.149L38.9963 26.9619V27.2038C38.9963 27.2038 38.7779 27.4732 38.914 27.6652C39.0521 27.8523 39.0776 27.8004 38.9963 28.0443C38.914 28.2863 38.9718 28.2863 38.9963 28.4225C39.0169 28.5263 39.0208 28.5361 39.0228 28.5968C40.2531 24.5706 39.8799 20.0664 37.6092 16.1362C36.5238 14.2514 35.1014 12.6752 33.4664 11.4419C33.5134 10.8375 33.5467 10.2399 33.5712 9.64428C35.7117 11.0696 37.5602 12.9946 38.9336 15.3711C40.5069 18.0983 41.2475 21.0764 41.2416 24.0152C41.2416 23.9329 41.2445 23.8506 41.2435 23.7693C45.8105 26.1811 48.4261 28.6154 47.9431 30.4111ZM27.2596 11.6447C27.2596 11.6447 27.429 11.5467 27.5133 11.5114C27.5966 11.4752 27.5133 11.4624 27.429 11.4027C27.3477 11.342 27.237 11.4517 27.237 11.4517C27.237 11.4517 27.189 11.4997 27.1401 11.6104C27.1352 11.6202 27.1283 11.628 27.1234 11.6329C27.0793 11.6897 27.0264 11.5428 27.0176 11.4644C27.0039 11.3821 26.6894 11.4399 26.7012 11.4399C26.7149 11.4399 26.7766 11.5976 26.7766 11.5976C26.7766 11.5976 26.7992 11.7416 26.7992 11.8043C26.7992 11.8651 26.7992 11.9738 26.8491 12.0453C26.8971 12.1158 27.0333 12.2295 27.0333 12.2295L27.1273 12.1678L27.1646 12.1433L27.3095 11.9013L27.43 11.7926L27.2596 11.6447ZM25.319 10.5681C25.319 10.5681 25.3395 10.3976 25.4326 10.4162C25.5286 10.4368 25.6217 10.187 25.6217 10.187C25.6217 10.187 25.5462 10.0351 25.4522 10.0351C25.3552 10.0351 25.1456 10.0547 25.1456 10.0547L25.0888 9.94013C25.0888 9.94013 24.9751 9.92151 24.8233 9.97833C24.6705 10.0351 24.6332 9.90192 24.6332 9.90192L24.6136 9.67269L24.403 9.72951L24.2512 9.59726C24.2512 9.59726 24.1934 9.48167 24.2884 9.48167C24.3844 9.48167 24.5186 9.50224 24.5186 9.50224L24.7067 9.36901L24.6323 9.21815L24.7645 9.06533C24.7645 9.06533 24.499 8.93211 24.4403 9.02811C24.3834 9.12215 24.1748 9.19856 24.1748 9.19856C24.1748 9.19856 24.1934 9.14174 24.0788 8.98892C23.9642 8.8361 24.1346 8.75969 23.8878 8.81847C23.7418 8.8508 23.6242 8.92427 23.5488 8.97913C23.4969 9.01733 23.4675 9.04672 23.4675 9.04672C23.4675 9.04672 23.202 9.10354 23.1824 9.19954C23.1619 9.29554 23.5057 9.35236 23.5057 9.35236C23.5057 9.35236 23.5233 9.32983 23.5488 9.30142C23.6007 9.24656 23.6899 9.17309 23.7545 9.23677C23.8495 9.33179 23.925 9.44738 23.925 9.44738L23.5625 9.63743L23.5488 9.62469L23.3725 9.48363H23.01L22.8386 9.56102L22.4957 9.59824C22.4957 9.59824 22.5525 9.76967 22.5525 9.8647C22.5525 9.95972 22.3997 10.0538 22.3997 10.0538L22.196 10.0361L22.1705 10.0351L21.9618 10.187C21.9618 10.187 21.7326 10.2076 21.6376 10.283C21.6209 10.2957 21.6053 10.3036 21.5866 10.3085C21.5004 10.331 21.4084 10.2712 21.4084 10.3976C21.4084 10.5504 21.4279 10.6259 21.3124 10.6454C21.2888 10.6494 21.2585 10.6552 21.2252 10.6621C21.1047 10.6866 20.9519 10.7209 20.9519 10.7209C20.9519 10.7209 20.8372 10.7777 20.7422 10.8747C20.6472 10.9687 20.4366 11.0255 20.4366 11.0255L20.4062 11.0197L20.0555 10.9491L19.5598 11.1597L19.5471 11.1891L19.4452 11.4272L19.12 11.4654C19.12 11.4654 18.8545 11.5986 18.8349 11.6966C18.8251 11.7446 18.7752 11.7877 18.7281 11.82C18.685 11.8484 18.6449 11.867 18.6449 11.867C18.6449 11.867 18.4548 11.9444 18.3588 12.0208C18.2628 12.0972 18.1482 12.2501 18.1482 12.2501L18.0728 12.4195L18.206 12.6105L17.9004 12.6488L17.9386 12.7996C18.0904 12.9505 18.1874 13.0279 18.2814 12.9505C18.3774 12.8741 18.3206 12.8192 18.4352 12.78C18.5028 12.7575 18.6214 12.7163 18.7291 12.6781C18.8045 12.6517 18.8721 12.6252 18.9123 12.6096C19.0093 12.5714 19.1611 12.4391 19.2748 12.4391C19.3884 12.4391 19.504 12.4176 19.504 12.4176L19.5481 12.3823L19.8077 12.1707L20.1133 12.3039L20.3602 12.2638C20.3602 12.2638 20.3602 12.3265 20.4072 12.3745C20.4238 12.3931 20.4454 12.4058 20.4758 12.4156C20.5894 12.4538 20.7618 12.4538 20.7618 12.4538C20.7618 12.4538 20.8568 12.3216 20.991 12.3216H21.2271H21.3329L21.3711 12.1501L21.5886 12.251L21.6199 12.2647L21.7904 12.399C21.7904 12.399 21.713 12.4166 21.905 12.494C22.0196 12.541 22.1293 12.5214 22.196 12.5028C22.24 12.4901 22.2665 12.4754 22.2665 12.4754L22.5907 12.5537C22.5907 12.5537 22.6094 12.2501 22.5143 12.2501C22.4174 12.2501 22.2283 12.1541 22.2283 12.1541L22.4389 12.0776L22.6672 12.0394L22.724 12.2873L23.0854 12.1727L23.0286 11.964L23.0482 11.6378L23.3921 11.6966L23.4126 11.9238C23.4126 11.9238 23.4793 11.9513 23.5508 11.9709C23.6311 11.9914 23.7163 11.9954 23.7163 11.9238C23.7163 11.7906 23.6399 11.6966 23.7359 11.6966C23.8319 11.6966 24.022 11.6378 24.022 11.6378L24.117 11.5055L24.2512 11.1999L24.404 11.4282L24.6146 11.2969L24.5764 11.1068L25.0349 10.8972C25.0349 10.8972 25.3003 10.86 25.4159 10.86C25.5306 10.86 25.5688 10.8218 25.5688 10.8218C25.5688 10.8218 25.6442 10.668 25.5306 10.668C25.414 10.6641 25.319 10.5681 25.319 10.5681ZM20.7638 17.9396L20.5737 18.0347L21.0126 18.2443L21.2291 18.2561L21.3937 18.2639C21.3937 18.2639 21.5083 18.0738 21.5269 17.8828C21.5357 17.7956 21.5553 17.7555 21.5906 17.728C21.6307 17.6957 21.6924 17.6771 21.7747 17.6154C21.9266 17.4998 21.8884 17.4635 21.8511 17.3499C21.8227 17.2657 21.6699 17.2725 21.5915 17.2843C21.5651 17.2882 21.5455 17.2931 21.5455 17.2931L21.2291 17.4518L21.2026 17.4655L21.0498 17.2755L20.8392 17.3323L20.6305 17.5409C20.6109 17.5223 20.7638 17.5625 20.7638 17.5625C20.7638 17.5625 20.8206 17.5409 20.9744 17.5625C21.1272 17.5821 20.9362 17.7133 20.9362 17.7133L20.6305 17.7907L20.7638 17.9396ZM21.4906 13.4824L21.231 13.503H21.2242C21.2242 13.503 21.1732 13.7743 21.231 13.934C21.235 13.9428 21.2389 13.9526 21.2428 13.9605C21.2977 14.0692 21.4093 14.1769 21.5915 14.2034C21.667 14.2132 21.7532 14.2103 21.8521 14.1887C22.0226 14.1505 22.0764 14.1407 22.0853 14.1407L22.0618 14.1505C22.0618 14.1505 22.096 14.1397 22.0853 14.1407L22.2009 14.0947L22.3478 14.0359C22.3478 14.0359 22.5947 13.8831 22.5947 13.7489C22.5947 13.6176 22.384 13.6548 22.2126 13.6548H22.1999C22.0412 13.6538 22.0578 13.6293 21.9844 13.4462C21.908 13.2551 21.908 13.5588 21.908 13.5588C21.908 13.5588 21.8315 13.5402 21.7542 13.3688C21.6777 13.1983 21.6591 13.0641 21.6591 13.0641L21.5915 13.0994L21.375 13.215L21.4319 13.3296L21.4906 13.4824ZM21.3006 18.9516C21.3006 18.9516 21.377 19.0466 21.4906 19.1994C21.5416 19.266 21.571 19.2455 21.5935 19.1994C21.6239 19.1416 21.6464 19.0456 21.6993 19.0456C21.7953 19.0456 21.7189 19.1994 21.8325 19.1769C21.9462 19.1583 22.195 19.1583 22.195 19.1583L22.2009 19.1642L22.3654 19.3483C22.3654 19.3483 22.5555 19.2533 22.576 19.1593C22.5966 19.0633 22.5956 19.0633 22.7475 19.0633C22.8993 19.0633 22.8425 19.0446 23.0335 18.8928C23.2246 18.739 22.9767 18.6058 22.8239 18.5303C22.6721 18.4539 22.8053 18.3217 22.8053 18.3217L22.8239 18.0543C22.8239 18.0543 22.8239 17.9592 22.8053 17.826C22.7857 17.6928 22.7485 17.5958 22.7289 17.4635C22.7083 17.3303 22.5751 17.3695 22.5751 17.3695V17.1971C22.5751 17.1971 22.8611 17.1971 22.9561 17.1589C23.0512 17.1207 22.9561 16.9297 22.9561 16.9297C22.9561 16.9297 22.7289 16.8346 22.5555 16.7778C22.385 16.721 22.4987 16.6828 22.7847 16.6642C23.0698 16.6436 22.8229 16.5123 22.8229 16.5123L22.5956 16.3791C22.5956 16.3791 22.481 16.5329 22.29 16.6083C22.2489 16.626 22.2205 16.6426 22.2018 16.6632C22.1342 16.7269 22.1793 16.8033 22.1196 16.8944V17.0472L22.2018 17.1893L22.2528 17.2745C22.2528 17.2745 22.2361 17.3538 22.2018 17.4371C22.1852 17.4792 22.1636 17.5223 22.1382 17.5625C22.0618 17.6761 22.1764 17.8084 22.1764 17.8084C22.1764 17.8084 22.1764 18.0552 22.1382 18.1914C22.1 18.3227 21.8139 18.0758 21.8139 18.0758L21.7571 18.4001H21.5935H21.4906L21.5298 18.5715L21.5935 18.6224L21.6993 18.7047L21.8129 18.8771L21.5915 18.7968L21.4897 18.7606L21.3006 18.9516ZM18.3069 10.3584L17.9827 10.7013C17.9827 10.7013 18.2687 10.7581 18.3637 10.7385C18.4196 10.7268 18.5734 10.6239 18.733 10.5142C18.8467 10.4348 18.9623 10.3555 19.0485 10.2996C19.2591 10.1684 19.3345 10.2046 19.3345 10.2046L19.4109 10.3565L18.9544 10.6219L19.4873 10.5455L19.55 10.4858L19.7528 10.2977L19.9634 10.0508L20.2867 10.0704L20.4091 10.0234L20.6864 9.91858C20.6864 9.91858 20.9146 9.76674 21.0097 9.5953C21.0841 9.46208 21.1341 9.53653 21.2261 9.5571C21.2526 9.56298 21.281 9.56494 21.3133 9.5571C21.4652 9.51889 21.3907 9.38567 21.3907 9.25244C21.3907 9.18681 21.4828 9.18191 21.5886 9.18289C21.7003 9.18387 21.8286 9.19562 21.8864 9.15644C22 9.08003 21.7914 8.92819 21.6386 8.89096L21.5876 8.87921C21.4681 8.85276 21.4064 8.83806 21.3897 8.71953C21.3799 8.64998 21.3084 8.62745 21.2252 8.63235C21.1488 8.63724 21.0625 8.66369 21.0087 8.7019C20.8941 8.77831 20.6658 8.79692 20.7432 8.64508C20.755 8.62059 20.7696 8.61177 20.7843 8.59708C20.1917 8.72149 19.601 8.88019 19.0181 9.07513C19.1494 9.07219 19.2052 9.08297 19.2943 9.08297C19.408 9.08297 19.1797 9.21619 19.1797 9.21619C19.1797 9.21619 18.8359 9.32983 18.7418 9.40428L18.7301 9.41506C18.6488 9.49342 18.685 9.6149 18.685 9.6149C18.685 9.6149 18.7036 9.6149 18.7301 9.6149C18.7918 9.61392 18.9035 9.61 18.9691 9.5953C19.0641 9.57473 19.1406 9.53849 19.3884 9.38469C19.4668 9.33669 19.5148 9.31024 19.5471 9.2975C19.6196 9.26615 19.6206 9.28477 19.7117 9.23285C19.8449 9.15546 19.7499 9.44346 19.7499 9.44346L20.1123 9.31024L20.4062 9.29554L20.511 9.29064L20.6256 9.08003L20.4052 9.03105L20.2828 9.0046L20.3974 8.88998H20.4052C20.4581 8.88998 20.7863 8.89096 20.8931 8.90958C21.0077 8.92917 20.8931 9.06337 20.8931 9.06337L20.8559 9.21717L20.7226 9.46208C20.7226 9.46208 20.5502 9.48265 20.417 9.48265H20.4062C20.274 9.49146 20.1309 9.63351 20.1309 9.63351L19.8635 9.82355H19.5471H19.4844L19.4276 10.0342L19.1219 9.99597C19.1219 9.99597 19.0837 9.89996 19.0651 9.76674C19.0455 9.63351 18.9113 9.76674 18.9113 9.76674C18.9113 9.76674 18.8584 9.99303 18.7291 10.09C18.7036 10.1106 18.6752 10.1214 18.6458 10.1292C18.4597 10.1684 18.3069 10.3584 18.3069 10.3584ZM22.4556 8.34238C22.2929 8.35903 22.1313 8.36981 21.9687 8.39332C21.9902 8.39822 22.0059 8.40703 22.0588 8.41781C22.1734 8.4374 22.0784 8.47463 22.0784 8.56867C22.0784 8.63234 22.1039 8.65194 22.1989 8.67153C22.2469 8.68035 22.3125 8.69112 22.4027 8.7019C22.6691 8.73912 22.4987 8.62549 22.4605 8.39724C22.4585 8.37373 22.4556 8.35609 22.4556 8.34238ZM21.3878 8.48344C21.4289 8.51479 21.4328 8.56671 21.4328 8.56671C21.4328 8.56671 21.4505 8.52557 21.4701 8.46777C21.4407 8.47365 21.4133 8.47855 21.3878 8.48344ZM23.6184 8.26989C23.5978 8.31201 23.5802 8.36295 23.586 8.41585C23.6056 8.58826 23.6438 8.41585 23.7575 8.37765C23.827 8.35316 23.8407 8.32671 23.8593 8.26401C23.778 8.26303 23.6987 8.26793 23.6184 8.26989ZM12.4478 13.3149L12.6878 13.3306L12.9925 13.1425L13.2972 13.2375L13.1267 13.3139C13.1267 13.3139 12.9543 13.5608 12.9171 13.6764C12.8789 13.79 13.3736 13.7714 13.3736 13.7714C13.3736 13.7714 13.5068 13.4099 13.5068 13.2581C13.5068 13.1062 13.9075 13.0102 13.9075 13.0102L14.0211 12.7075L14.2111 12.8388C14.2111 12.8388 14.3267 12.6282 14.3081 12.5332C14.2885 12.4381 13.9457 12.4176 13.9457 12.4176L14.2895 12.2481L14.6334 12.3431L14.5569 13.0093H14.8998L14.9772 13.1239C14.9772 13.1239 14.5011 13.3913 14.4041 13.3913C14.3101 13.3913 14.0995 13.6362 14.0995 13.6362L13.9094 13.8468C13.9094 13.8468 13.9849 13.9614 14.1367 13.9987C14.2905 14.0369 14.2905 14.1319 14.2905 14.1319C14.2905 14.1319 14.4992 14.0535 14.4992 13.9418C14.4992 13.8272 14.4227 13.788 14.4227 13.788C14.4227 13.788 14.5942 13.6 14.7088 13.4648C14.8224 13.3315 15.4337 13.0651 15.5473 12.9319C15.661 12.7986 15.5855 12.7026 15.5855 12.7026L15.8716 12.5302C15.8716 12.5302 15.948 12.1687 15.9852 12.0747C16.0234 11.9797 16.4241 11.7877 16.7101 11.578C16.9962 11.3684 17.0334 11.3488 17.4135 11.2548C17.7955 11.1578 17.5281 11.1215 17.5105 11.0069C17.4899 10.8923 17.1862 11.1588 17.1862 11.1588L16.7287 11.0285C16.7287 11.0285 16.9188 11.0285 17.1098 10.8766C17.2999 10.7238 17.2636 10.8384 17.3959 10.7816C17.5281 10.7248 17.4909 10.668 17.4909 10.668H17.7015C17.7015 10.668 17.8729 10.4965 17.967 10.3447C18.062 10.1919 18.2716 9.90682 18.2716 9.90682C18.2716 9.90682 17.7965 10.1743 17.7005 10.2115C17.6055 10.2487 17.4527 10.1743 17.339 10.1743C17.2244 10.1743 17.053 10.3623 16.863 10.4397C16.6729 10.5161 16.4633 10.6278 16.4633 10.6278L16.1772 10.571L15.948 10.667L15.3965 10.8962C15.3965 10.8962 15.4915 10.8198 15.7207 10.6866C15.949 10.5543 16.1782 10.4201 16.1782 10.4201L16.5407 10.3251L16.574 10.1409C16.428 10.2193 16.2811 10.2938 16.1371 10.378C14.7274 11.1842 13.496 12.1825 12.4478 13.3149ZM26.7864 28.8202C27.1685 27.6006 27.5388 26.3388 27.8875 25.0379C30.9694 13.5314 31.3279 3.62947 28.6849 2.92023C27.5466 2.61459 26.036 4.06931 24.4393 6.74169C24.4226 6.74169 24.4069 6.74169 24.3913 6.74169C26.183 6.78284 27.9541 7.10121 29.6391 7.6831C29.6655 8.2356 29.6704 8.74304 29.6704 9.14958C29.6704 9.48559 29.6655 9.75008 29.6577 9.90388C29.6048 11.3508 29.4735 12.8319 29.2835 14.32C29.209 14.2945 29.1365 14.2759 29.0601 14.27C28.8563 14.2563 28.8514 14.2671 28.8554 14.27C28.8524 14.2681 28.681 14.1299 28.6173 14.0212C28.5556 13.9105 28.4302 13.8331 28.1941 13.7518C27.9551 13.6724 27.9727 13.8458 27.9727 13.8458C27.9727 13.8458 27.7494 14.0045 27.4673 13.9742C27.1959 13.9438 27.1244 14.2494 27.1205 14.27V14.272L26.9177 14.4454C26.9177 14.4454 26.806 14.6344 26.6796 14.6344C26.5513 14.6344 26.4573 14.6658 26.4573 14.6658C26.4573 14.6658 26.3956 14.9009 26.3956 15.0282C26.3956 15.1546 26.2682 15.1693 26.2682 15.1693C26.2682 15.1693 26.1105 15.2006 26.0027 15.2486C25.893 15.2957 25.7813 15.3584 25.6726 15.4211C25.5609 15.4838 25.6079 15.5308 25.3875 15.6591C25.1661 15.7855 25.0878 15.8325 25.0878 15.8325L24.79 15.8952L24.9467 16.0539L24.7116 16.1009C24.7116 16.1009 24.694 16.2429 24.7273 16.3527C24.7586 16.4634 24.9937 16.479 24.9937 16.479C24.9937 16.479 24.837 16.6064 24.6499 16.6848C24.4598 16.7651 24.4598 16.7945 24.4745 16.8728C24.4922 16.9512 24.6019 17.1226 24.9173 17.2039C25.2308 17.2823 25.0104 17.1873 25.1534 17.1089C25.2964 17.0306 25.4512 16.9835 25.4512 16.9835C25.4512 16.9835 25.6393 17.298 25.6393 17.4391C25.6393 17.5811 25.5913 17.8476 25.6099 17.9426C25.6275 18.0376 25.7833 17.9112 25.7833 17.9112L25.6403 18.0699C25.6403 18.0699 25.6726 18.355 25.6726 18.4324C25.6726 18.5117 25.9557 18.4637 25.9557 18.3854C25.9557 18.307 26.1124 18.1806 26.3505 18.1649C26.5866 18.1483 26.5533 18.1179 26.5533 17.9279C26.5533 17.7378 26.6042 17.4851 26.6042 17.4851L26.8697 17.4067C26.8697 17.4067 27.0254 17.2902 27.1195 17.1951C27.1469 17.1687 27.1695 17.1432 27.1832 17.1217C27.2165 17.0707 27.1783 17.0188 27.1195 16.9718C27.0754 16.9306 27.0147 16.8915 26.9784 16.8532C26.8991 16.7749 26.8697 16.5231 26.8697 16.3654C26.8697 16.2067 26.8697 16.2704 26.8854 16.1607C26.9001 16.0598 27.0176 16.0519 27.1214 16.0284C27.1332 16.0265 27.144 16.0235 27.1518 16.0186C27.2615 15.9892 27.4046 15.7972 27.6073 15.7051C27.8121 15.6101 27.4996 15.5944 27.4996 15.5944C27.4996 15.5944 27.528 15.4201 27.5623 15.279C27.5907 15.1379 28.0031 15.3251 28.0031 15.3251L28.1608 15.5141L27.9727 15.6562L27.7513 15.9873L27.4359 16.3967L27.6886 17.057C27.6886 17.057 27.91 17.1667 28.0511 17.1511C28.1941 17.1354 28.3518 17.056 28.4449 16.9786C28.4851 16.9444 28.6849 16.8915 28.9073 16.8444L28.8319 17.2833C28.7662 17.3107 28.679 17.2539 28.4998 17.2539C28.2549 17.2539 28.1882 17.3656 27.9629 17.3871C27.7386 17.4106 27.8738 17.5664 27.8738 17.6761C27.8738 17.7868 28.1863 17.922 28.1863 17.922L27.9404 18.0787C27.9404 18.0787 27.8287 17.8329 27.6054 17.8544C27.381 17.8779 27.4702 18.1669 27.3389 18.2776C27.2028 18.3903 27.4261 18.7263 27.4261 18.7263C27.4261 18.7263 27.2655 18.7459 27.1185 18.8291C27.1019 18.8399 27.0881 18.8497 27.0695 18.8595C26.9147 18.9712 26.8697 18.883 26.8697 18.883C26.8697 18.883 26.7815 18.7488 26.6698 18.7488C26.5562 18.7488 26.4034 18.929 26.2878 18.9721C26.1771 19.0153 25.797 18.9721 25.797 18.9721L25.5531 18.7047L25.3503 18.9055C25.3503 18.9055 25.172 18.8615 25.0603 18.7272C24.9496 18.593 25.0603 18.6156 25.0388 18.5039C25.0172 18.3912 24.9722 18.3912 24.9722 18.3912L25.0839 18.212L25.3728 18.0327C25.3728 18.0327 25.4424 17.6311 25.3062 17.4528C25.173 17.2725 25.173 17.6301 25.173 17.6301L24.7292 17.924L24.7527 18.5274L24.6626 18.7939L24.4834 18.7498L24.3717 18.884C24.3717 18.884 24.26 18.8174 24.0817 18.7498C23.9024 18.6822 23.5909 18.9731 23.5909 18.9731L23.5488 19.075L23.4773 19.2474L23.2324 19.2033L23.0982 19.3581C23.0982 19.3581 22.9424 19.3581 22.8317 19.3581C22.721 19.3581 22.7857 19.5589 22.7857 19.5589C22.7857 19.5589 22.7093 19.65 22.6211 19.6824L22.5809 19.6295C22.4507 19.6118 22.4193 19.6295 22.337 19.6941C22.3018 19.7216 22.2469 19.7421 22.196 19.7549C22.1323 19.7705 22.0764 19.7764 22.0764 19.7764L21.9628 19.4835C21.9628 19.4835 21.8815 19.3385 21.8012 19.4522C21.7199 19.5668 21.7512 19.6461 21.7512 19.6461L21.7845 19.8411L21.6219 19.8587L21.5866 19.8479L21.5083 19.8244L21.2242 19.6549L21.183 19.6295C21.183 19.6295 20.9881 19.5962 21.0204 19.7274C21.0528 19.8577 21.2154 20.0184 21.2154 20.1007C21.2154 20.1105 21.2193 20.1183 21.2242 20.1232C21.2741 20.1771 21.5083 20.1614 21.5083 20.2633C21.5083 20.3769 21.3613 20.5072 21.3613 20.5072C21.3613 20.5072 21.475 20.6042 21.475 20.7501C21.475 20.8951 21.4426 21.1067 21.4093 21.2047C21.378 21.3017 21.2967 21.2693 21.2634 21.3663C21.2555 21.3918 21.2408 21.4202 21.2242 21.4466C21.1732 21.5289 21.1017 21.6102 21.1017 21.6102C21.1017 21.6102 20.8588 21.6759 20.7775 21.6426C20.6962 21.6102 20.6305 21.4956 20.4846 21.4633C20.4493 21.4545 20.4248 21.4545 20.4062 21.4564C20.3474 21.4653 20.3386 21.4947 20.1917 21.3957C19.9967 21.2654 19.9321 21.2164 19.8018 21.1684C19.6715 21.1204 19.6068 21.0068 19.6068 21.0068C19.6068 21.0068 19.5833 20.9911 19.5481 20.9725C19.4883 20.9392 19.3992 20.8922 19.3472 20.8922C19.2659 20.8922 19.1357 21.0391 19.1357 21.0391C19.1357 21.0391 19.168 21.1704 19.1357 21.3311C19.1043 21.4927 19.168 21.574 19.071 21.6396C18.974 21.7033 18.9574 21.6563 18.9407 21.7846C18.9241 21.9149 19.0054 21.8493 18.877 21.9786C18.7605 22.0961 18.8153 22.0942 18.7311 22.1529C18.7223 22.1598 18.7115 22.1667 18.6987 22.1745C18.5685 22.2558 18.5185 22.2382 18.4372 22.3694C18.3559 22.4988 18.3245 22.6457 18.3245 22.7593C18.3245 22.871 18.6821 23.2785 18.6821 23.2785C18.6821 23.2785 18.7027 23.2815 18.7311 23.2913C18.7899 23.3109 18.877 23.3491 18.877 23.4255C18.877 23.5381 18.7467 23.5881 18.877 23.6674C19.0073 23.7487 18.9407 23.7654 19.023 23.8144C19.0612 23.8389 19.3061 23.8908 19.549 23.9407C19.8145 23.9946 20.079 24.0426 20.079 24.0426L20.2583 23.9114H20.4082H20.5678L20.6492 23.6351L20.8921 23.6184L20.9088 23.3579C20.9088 23.3579 20.8754 23.0983 20.9577 23.0983C20.9969 23.0983 21.1164 23.0307 21.2261 22.9631C21.3398 22.8926 21.4446 22.821 21.4446 22.821C21.4446 22.821 21.5063 22.8357 21.5876 22.8465C21.712 22.8641 21.8815 22.8769 21.9305 22.8387C22.0118 22.774 22.1911 22.5144 22.1911 22.5144C22.1911 22.5144 22.1519 22.3077 22.195 22.2166C22.2077 22.1902 22.2263 22.1725 22.2547 22.1725C22.385 22.1725 22.6946 22.1902 22.7916 22.2852C22.8895 22.3832 23.1325 22.5144 23.2304 22.4968C23.3147 22.4831 23.4479 22.3959 23.5468 22.3312L23.588 22.3048C23.6242 22.2803 23.7193 22.2117 23.8251 22.1294C23.829 22.1363 23.8319 22.1412 23.8319 22.1412C23.8319 22.1412 24.0582 22.1725 24.1229 22.2852C24.1875 22.3998 24.2208 22.6104 24.1875 22.7407C24.1562 22.871 24.3991 22.9837 24.4804 23.0836C24.5617 23.1815 24.9516 23.7007 25.0839 23.8634C25.2132 24.025 25.4728 24.3179 25.4728 24.3179L25.605 24.6265L25.3268 24.8195C25.3268 24.8195 25.0359 24.8048 24.935 24.7715C24.839 24.7391 24.7567 24.8351 24.7567 24.8351C24.7567 24.8351 24.692 24.8048 24.546 24.6735C24.3991 24.5412 24.4961 24.6911 24.3168 24.7871C24.1385 24.8861 24.546 25.0281 24.6421 25.1124C24.74 25.1927 24.8703 25.3396 24.933 25.4209C24.9996 25.5003 25.1612 25.3896 25.1612 25.2593C25.1612 25.1251 25.1799 25.0154 25.1799 25.0154H25.4708L25.6511 24.8048L25.796 24.6725L25.8617 24.4923L25.7471 24.167C25.7471 24.167 25.941 24.1024 26.0223 24.1024C26.1027 24.1024 26.1859 24.3453 26.1859 24.3453L26.2653 24.3776C26.2653 24.3776 26.2653 24.1827 26.2153 24.1014C26.1653 24.0201 25.9077 23.8261 25.9077 23.8261C25.9077 23.8261 25.6148 23.7125 25.5325 23.6449C25.4532 23.5812 25.2582 23.2393 25.1603 23.0601C25.0623 22.8808 25.1309 22.8651 25.1113 22.7838C25.0946 22.7025 24.932 22.6026 24.8703 22.4909C24.8066 22.3783 24.8203 22.2156 24.8203 22.2156C24.8203 22.2156 24.9663 22.1167 25.1299 22.0207C25.1867 21.9874 25.2102 21.9629 25.2181 21.9502C25.2827 22.0178 25.4532 22.2107 25.4532 22.3303C25.4532 22.4752 25.5188 22.6388 25.5531 22.7358C25.5835 22.8328 25.7794 22.9151 26.04 22.9631C26.3005 23.0121 26.2192 23.1923 26.2192 23.1923C26.2192 23.1923 26.4612 23.4833 26.4955 23.6792C26.5268 23.8722 26.5268 23.9711 26.5425 24.216C26.5621 24.4599 26.6747 24.4923 26.7551 24.7186C26.8354 24.9458 26.8697 24.9458 26.9196 25.1231C26.9412 25.2035 26.9588 25.2867 26.9882 25.368C26.8246 25.9646 26.6542 26.5671 26.4778 27.1705C26.327 27.3086 26.2173 27.8239 26.2173 27.8239C26.2173 27.8239 26.1683 27.8514 26.0978 27.8739L25.7588 27.7936C25.5864 27.6094 25.1916 27.5398 24.982 27.3968C24.7684 27.2557 24.7684 26.9472 24.6029 26.8051C24.4373 26.6621 24.3178 26.7336 24.3178 26.7336C24.3178 26.7336 23.8427 26.6386 23.7486 26.5201C23.6967 26.4544 23.6125 26.3604 23.5449 26.281C23.4861 26.2144 23.4401 26.1635 23.4401 26.1635C23.4401 26.1635 23.4861 26.1174 23.5449 26.0685C23.6154 26.0067 23.7075 25.9382 23.7712 25.9254C23.8907 25.9019 23.7251 25.6639 23.5831 25.4258C23.441 25.1888 23.9632 25.1173 23.9387 24.9977C23.9162 24.8821 23.6889 24.8802 23.5459 24.8136L23.5351 24.8087C23.393 24.7372 23.06 24.8087 23.06 24.8087L22.6094 24.7117C22.6094 24.7117 22.4673 24.7617 22.3488 24.8087C22.3057 24.8273 22.2508 24.8175 22.194 24.7901C22.0911 24.745 21.9824 24.6451 21.9197 24.5226C21.8541 24.3904 21.7218 24.4168 21.5847 24.408C21.521 24.4041 21.4583 24.3914 21.3986 24.3551C21.3339 24.314 21.2781 24.3012 21.2232 24.3022C21.1194 24.3052 21.0243 24.362 20.8999 24.3786C20.7422 24.3982 20.5375 24.4492 20.4043 24.4668C20.3768 24.4707 20.3514 24.4737 20.3298 24.4737C20.2122 24.4737 20.0682 24.5687 19.9027 24.6627C19.7371 24.7568 19.6891 24.4012 19.6891 24.4012C19.6891 24.4012 19.6382 24.4012 19.5461 24.3825C19.4491 24.3649 19.3032 24.3296 19.119 24.2562C18.7634 24.1132 18.929 23.9006 18.929 23.9006C18.929 23.9006 18.8614 23.9545 18.7272 24.071C18.6831 24.1112 18.6312 24.1553 18.5714 24.2101C18.3343 24.4237 18.2648 24.5187 18.0502 24.4962C17.8367 24.4746 17.7172 24.5677 17.5751 24.6392C17.4439 24.7019 17.1529 25.2093 17.1069 25.2916C14.2787 24.3199 11.4819 23.1766 8.95455 21.8375C8.84483 21.7778 8.66752 21.6818 8.44809 21.5564C8.4236 21.5397 8.39519 21.526 8.36776 21.5103C8.34425 21.4976 8.32368 21.4839 8.29919 21.4711C7.94457 21.2674 7.50766 21.0058 7.04333 20.708C7.38325 18.9496 7.99551 17.251 8.85952 15.6709C8.84777 15.6924 8.83406 15.711 8.82426 15.7316C5.71301 15.7786 3.70089 16.3605 3.39525 17.4988C2.68699 20.1398 11.4428 24.7842 22.9483 27.868C24.261 28.2285 25.5355 28.542 26.7864 28.8202ZM23.2902 23.9564C23.2108 23.9868 23.2108 24.1631 23.2108 24.1631C23.2108 24.1631 23.2735 24.2425 23.3539 24.2572C23.4068 24.2689 23.4685 24.265 23.5508 24.2454C23.5899 24.2366 23.634 24.2248 23.6879 24.2101C23.8466 24.1631 23.7516 24.0818 23.7829 23.9721C23.8143 23.8624 23.8143 23.7174 23.8789 23.6057C23.9426 23.495 23.7516 23.4176 23.7516 23.4176C23.7516 23.4176 23.6046 23.6224 23.5508 23.7076L23.5449 23.7184C23.4979 23.7967 23.3686 23.9221 23.2902 23.9564ZM23.5517 23.1071C23.634 23.0875 23.8251 23.0375 23.8633 22.9366C23.9103 22.8103 23.8946 22.8739 23.9436 22.7319C23.9916 22.5899 23.8153 22.7789 23.8153 22.7789L23.6086 22.9072L23.5517 23.0307L23.5135 23.113C23.5145 23.113 23.5273 23.112 23.5517 23.1071Z" fill="black"/>
</g>
<defs>
<clipPath id="clip0_831_2859">
<rect width="48" height="48" fill="white"/>
</clipPath>
</defs>
</svg>
